<svg xmlns="http://www.w3.org/2000/svg" width="203.864" height="251.342" xmlns:v="https://vecta.io/nano"><a transform="scale(2.7926899)"><g fill="gray"><path d="M36.498 0C14.989 0 0 6.453 0 12.244c0 2.862 3.685 5.882 9.986 8.209a6.39 6.39 0 0 1 .871-1.096 6.35 6.35 0 0 1 8.973 0l4.313 4.313c3.818.49 7.904.818 12.355.818s8.538-.329 12.355-.818l4.313-4.312a6.35 6.35 0 0 1 8.973 0c.338.338.627.708.873 1.096 6.301-2.327 9.986-5.346 9.986-8.209C72.998 6.453 58.007 0 36.498 0zM0 41.373v14.551c.004 2.766 3.505 5.665 9.424 7.957a6.32 6.32 0 0 1 1.436-2.215l12.3-12.303C13.502 48.067 4.803 45.39 0 41.373zm72.998 0c-4.803 4.017-13.502 6.694-23.16 7.99l12.301 12.303a6.32 6.32 0 0 1 1.436 2.217c5.924-2.293 9.424-5.197 9.424-7.965zm-36.5 12.602L23.234 67.238c4.056.563 8.465.924 13.264.924a95.93 95.93 0 0 0 13.266-.924z"/><path d="M72.998 19.535c-2.241 1.874-5.386 3.434-9.02 4.729a6.32 6.32 0 0 1-1.84 4.07L45.475 45l.803.803c16.095-1.59 26.721-6.863 26.721-11.721zM0 19.537v14.549c.007 4.857 10.631 10.128 26.721 11.717l.803-.803-16.666-16.666a6.32 6.32 0 0 1-1.84-4.072C5.385 22.967 2.241 21.411 0 19.537zm28.57 8.561l7.928 7.926 7.926-7.926c-2.631.204-5.285.342-7.926.342s-5.295-.137-7.928-.342zM0 63.211v14.545C.001 83.548 14.99 90 36.498 90s36.5-6.453 36.5-12.244V63.211c-2.297 1.921-5.536 3.512-9.287 4.824a6.31 6.31 0 0 1-1.572 2.605 6.32 6.32 0 0 1-8.908.058c-5.331.926-11.074 1.416-16.732 1.416s-11.399-.49-16.73-1.416c-1.23 1.197-2.825 1.801-4.422 1.801-1.624 0-3.247-.62-4.486-1.859a6.31 6.31 0 0 1-1.572-2.605C5.536 66.723 2.297 65.132 0 63.211z"/></g></a></svg>