<?xml version="1.0" encoding="UTF-8" standalone="no"?>
<!-- Generator: Adobe Illustrator 16.0.0, SVG Export Plug-In . SVG Version: 6.00 Build 0)  -->

<svg
   xmlns:dc="http://purl.org/dc/elements/1.1/"
   xmlns:cc="http://creativecommons.org/ns#"
   xmlns:rdf="http://www.w3.org/1999/02/22-rdf-syntax-ns#"
   xmlns:svg="http://www.w3.org/2000/svg"
   xmlns="http://www.w3.org/2000/svg"
   xmlns:sodipodi="http://sodipodi.sourceforge.net/DTD/sodipodi-0.dtd"
   xmlns:inkscape="http://www.inkscape.org/namespaces/inkscape"
   version="1.1"
   id="Capa_1"
   x="0px"
   y="0px"
   width="20.131px"
   height="25.152px"
   viewBox="0 0 20.131 25.152"
   style="enable-background:new 0 0 20.131 25.152;"
   xml:space="preserve"
   sodipodi:docname="database-nologo.svg"
   inkscape:version="0.92.2 (5c3e80d, 2017-08-06)"><metadata
     id="metadata45"><rdf:RDF><cc:Work
         rdf:about=""><dc:format>image/svg+xml</dc:format><dc:type
           rdf:resource="http://purl.org/dc/dcmitype/StillImage" /><dc:title></dc:title></cc:Work></rdf:RDF></metadata><defs
     id="defs43" /><sodipodi:namedview
     pagecolor="#ffffff"
     bordercolor="#666666"
     borderopacity="1"
     objecttolerance="10"
     gridtolerance="10"
     guidetolerance="10"
     inkscape:pageopacity="0"
     inkscape:pageshadow="2"
     inkscape:window-width="1314"
     inkscape:window-height="794"
     id="namedview41"
     showgrid="false"
     inkscape:zoom="9.3829515"
     inkscape:cx="10.0655"
     inkscape:cy="11.495049"
     inkscape:window-x="238"
     inkscape:window-y="86"
     inkscape:window-maximized="0"
     inkscape:current-layer="Capa_1" /><g
     id="g860"><path
       style="fill:#999999"
       id="path2"
       d="M10.065,13.713c-4.725,0-8.68-1.385-9.761-3.26C0.113,10.785,0,11.127,0,11.48v3.062c0,2.367,4.506,4.283,10.065,4.283  c5.559,0,10.066-1.916,10.066-4.283V11.48c0-0.354-0.113-0.695-0.305-1.027C18.745,12.328,14.792,13.713,10.065,13.713z" /><path
       style="fill:#999999"
       id="path4"
       d="M10.065,20.039c-4.725,0-8.68-1.391-9.761-3.258C0.113,17.109,0,17.449,0,17.805v3.064c0,2.365,4.506,4.283,10.065,4.283  c5.559,0,10.066-1.918,10.066-4.283v-3.064c0-0.355-0.113-0.695-0.305-1.023C18.745,18.648,14.792,20.039,10.065,20.039z" /><path
       style="fill:#999999"
       id="path6"
       d="M19.854,4.334c-0.195,1.732-4.496,3.119-9.789,3.119c-5.291,0-9.594-1.387-9.789-3.119C0.104,4.65,0,4.977,0,5.314v3.061  c0,2.369,4.506,4.283,10.065,4.283c5.559,0,10.066-1.914,10.066-4.283V5.314C20.131,4.977,20.028,4.65,19.854,4.334z" /><ellipse
       style="fill:#999999"
       id="ellipse8"
       ry="3.241"
       rx="9.807"
       cy="3.241"
       cx="10.065" /></g><g
     id="g10" /><g
     id="g12" /><g
     id="g14" /><g
     id="g16" /><g
     id="g18" /><g
     id="g20" /><g
     id="g22" /><g
     id="g24" /><g
     id="g26" /><g
     id="g28" /><g
     id="g30" /><g
     id="g32" /><g
     id="g34" /><g
     id="g36" /><g
     id="g38" /><text
     xml:space="preserve"
     style="font-style:normal;font-weight:normal;font-size:40px;line-height:125%;font-family:'Times New Roman';-inkscape-font-specification:'Times New Roman';letter-spacing:0px;word-spacing:0px;fill:#ffffff;fill-opacity:1;stroke:none;stroke-width:1px;stroke-linecap:butt;stroke-linejoin:miter;stroke-opacity:1"
     x="4.3643284"
     y="19.370922"
     id="text854"><tspan
       sodipodi:role="line"
       id="tspan852"
       x="4.3643284"
       y="19.370922"
       style="font-style:normal;font-variant:normal;font-weight:normal;font-stretch:normal;font-size:18.66666603px;font-family:'Arial Black';-inkscape-font-specification:'Arial Black, ';fill:#ffffff">?</tspan></text>
</svg>