<?xml version="1.0" encoding="UTF-8" standalone="no"?>
<!-- Generator: Adobe Illustrator 16.0.0, SVG Export Plug-In . SVG Version: 6.00 Build 0)  -->

<svg
   xmlns:dc="http://purl.org/dc/elements/1.1/"
   xmlns:cc="http://creativecommons.org/ns#"
   xmlns:rdf="http://www.w3.org/1999/02/22-rdf-syntax-ns#"
   xmlns:svg="http://www.w3.org/2000/svg"
   xmlns="http://www.w3.org/2000/svg"
   xmlns:sodipodi="http://sodipodi.sourceforge.net/DTD/sodipodi-0.dtd"
   xmlns:inkscape="http://www.inkscape.org/namespaces/inkscape"
   version="1.1"
   id="Capa_1"
   x="0px"
   y="0px"
   width="20.131px"
   height="25.152px"
   viewBox="0 0 20.131 25.152"
   style="enable-background:new 0 0 20.131 25.152;"
   xml:space="preserve"
   sodipodi:docname="database-nologo.svg"
   inkscape:version="0.92.4 (5da689c313, 2019-01-14)"><metadata
   id="metadata45"><rdf:RDF><cc:Work
       rdf:about=""><dc:format>image/svg+xml</dc:format><dc:type
         rdf:resource="http://purl.org/dc/dcmitype/StillImage" /><dc:title /></cc:Work></rdf:RDF></metadata><defs
   id="defs43" /><sodipodi:namedview
   pagecolor="#ffffff"
   bordercolor="#666666"
   borderopacity="1"
   objecttolerance="10"
   gridtolerance="10"
   guidetolerance="10"
   inkscape:pageopacity="0"
   inkscape:pageshadow="2"
   inkscape:window-width="2460"
   inkscape:window-height="1403"
   id="namedview41"
   showgrid="false"
   inkscape:zoom="18.765903"
   inkscape:cx="10.113296"
   inkscape:cy="4.417553"
   inkscape:window-x="0"
   inkscape:window-y="0"
   inkscape:window-maximized="1"
   inkscape:current-layer="Capa_1" /><g
   id="g860"
   style="fill:#cccccc"><path
     style="fill:#cccccc"
     id="path2"
     d="M10.065,13.713c-4.725,0-8.68-1.385-9.761-3.26C0.113,10.785,0,11.127,0,11.48v3.062c0,2.367,4.506,4.283,10.065,4.283  c5.559,0,10.066-1.916,10.066-4.283V11.48c0-0.354-0.113-0.695-0.305-1.027C18.745,12.328,14.792,13.713,10.065,13.713z" /><path
     style="fill:#cccccc"
     id="path4"
     d="M10.065,20.039c-4.725,0-8.68-1.391-9.761-3.258C0.113,17.109,0,17.449,0,17.805v3.064c0,2.365,4.506,4.283,10.065,4.283  c5.559,0,10.066-1.918,10.066-4.283v-3.064c0-0.355-0.113-0.695-0.305-1.023C18.745,18.648,14.792,20.039,10.065,20.039z" /><path
     style="fill:#cccccc"
     id="path6"
     d="M19.854,4.334c-0.195,1.732-4.496,3.119-9.789,3.119c-5.291,0-9.594-1.387-9.789-3.119C0.104,4.65,0,4.977,0,5.314v3.061  c0,2.369,4.506,4.283,10.065,4.283c5.559,0,10.066-1.914,10.066-4.283V5.314C20.131,4.977,20.028,4.65,19.854,4.334z" /><ellipse
     style="fill:#cccccc"
     id="ellipse8"
     ry="3.241"
     rx="9.807"
     cy="3.241"
     cx="10.065" /></g><g
   id="g10" /><g
   id="g12" /><g
   id="g14" /><g
   id="g16" /><g
   id="g18" /><g
   id="g20" /><g
   id="g22" /><g
   id="g24" /><g
   id="g26" /><g
   id="g28" /><g
   id="g30" /><g
   id="g32" /><g
   id="g34" /><g
   id="g36" /><g
   id="g38" /><g
   aria-label="?"
   style="font-style:normal;font-weight:normal;line-height:0%;font-family:'Times New Roman';-inkscape-font-specification:'Times New Roman';letter-spacing:0px;word-spacing:0px;fill:#808080;fill-opacity:1;stroke:none;stroke-width:1px;stroke-linecap:butt;stroke-linejoin:miter;stroke-opacity:1"
   id="text854"><path
     d="m 16.8575,8.4840011 -0.048,-0.432 -0.072,-0.384 -0.24,-0.816 -0.168,-0.384 -0.192,-0.384 -0.24,-0.336 -0.312,-0.288 -0.336,-0.264 -0.336,-0.24 -0.72,-0.432 -0.384,-0.192 -0.384,-0.168 -0.408,-0.144 -0.408,-0.096 -0.408,-0.072 -1.272,-0.168 -0.84,-0.096 H 9.5375002 l -0.36,0.024 -0.576,0.048 -0.36,0.048 -0.144,0.024 -0.336,0.072 -0.144,0.024 -0.384,0.12 -0.384,0.144 -0.168,0.048 -0.72,0.336 -0.168,0.072 -0.288,0.144 -0.144,0.096 -0.264,0.168 -0.144,0.096 -0.288,0.24 -0.336,0.336 -0.288,0.384 -0.192,0.36 -0.072,0.168 -0.144,0.288 -0.048,0.168 -0.12,0.36 -0.096,0.456 -0.072,0.408 v 0.144 l -0.024,0.336 v 0.192 l 0.024,0.24 0.072,0.096 0.072,0.048 0.216,0.048 0.36,0.072 1.128,0.072 h 1.536 l 0.384,-0.024 0.168,-0.024 0.264,-0.048 0.144,-0.024 0.096,-0.072 0.072,-0.12 0.072,-0.24 0.12,-0.36 0.192,-0.264 0.216,-0.216 0.288,-0.192 0.312,-0.144 0.336,-0.144 0.36,-0.072 H 10.0895 l 0.384,0.072 0.336,0.12 0.264,0.144 0.264,0.216 0.216,0.288 0.168,0.336 0.072,0.336 -0.048,0.36 -0.168,0.408 -0.24,0.3119999 -0.144,0.144 -0.312,0.24 -0.168,0.12 -0.384,0.24 -0.3599998,0.192 -0.144,0.072 -0.288,0.168 -0.144,0.072 -0.288,0.192 -0.12,0.12 -0.288,0.264 -0.312,0.336 -0.264,0.336 -0.072,0.144 -0.168,0.312 -0.096,0.168 -0.144,0.36 -0.144,0.432 -0.096,0.408 -0.048,0.168 -0.048,0.36 v 0.168 l -0.024,0.264 0.048,0.144 0.072,0.096 0.144,0.072 0.288,0.048 0.216,0.024 0.408,0.024 0.864,-0.048 0.192,-0.024 H 10.6175 l 0.792,-0.048 0.216,-0.024 0.264,-0.048 0.12,-0.024 0.072,-0.048 0.072,-0.096 0.168,-0.672 0.192,-0.384 0.216,-0.336 0.528,-0.576 0.312,-0.288 0.312,-0.216 1.056,-0.768 0.312,-0.216 0.312,-0.264 0.288,-0.264 0.288,-0.288 0.24,-0.312 0.192,-0.336 0.144,-0.36 0.096,-0.3839999 0.048,-0.408 z m -4.392,10.4159999 -0.072,-0.384 -0.12,-0.384 -0.192,-0.336 -0.264,-0.312 -0.312,-0.264 -0.336,-0.216 -0.36,-0.12 -0.384,-0.096 -0.4319998,-0.048 h -0.456 l -0.432,0.072 -0.36,0.096 -0.36,0.144 -0.336,0.216 -0.312,0.24 -0.24,0.312 -0.192,0.336 -0.12,0.384 -0.072,0.384 v 0.384 l 0.072,0.384 0.12,0.384 0.192,0.36 0.24,0.312 0.288,0.264 0.336,0.192 0.36,0.168 0.384,0.12 0.432,0.048 0.456,0.024 0.4319998,-0.048 0.408,-0.096 0.36,-0.168 0.336,-0.192 0.312,-0.288 0.216,-0.336 0.192,-0.36 0.12,-0.384 0.072,-0.384 z"
     style="font-style:normal;font-variant:normal;font-weight:normal;font-stretch:normal;font-size:24px;line-height:1.25;font-family:'Nexa Rust Sans';-inkscape-font-specification:'Nexa Rust Sans';fill:#999999"
     id="path90" /></g>
</svg>