<svg xmlns="http://www.w3.org/2000/svg" width="800" height="251.342" xmlns:v="https://vecta.io/nano"><path d="M112.696 8.48v34.942h-4.656l-17.591-26.95v26.951h-4.632V8.48h4.632l17.663 27.023V8.48zm35.086 18.575q0 7.872-3.816 12.359-3.816 4.488-10.199 4.488-6.216 0-10.151-4.488-3.936-4.488-3.936-12.359v-2.208q0-7.848 3.912-12.335Q127.503 8 133.719 8q6.336 0 10.151 4.44 3.84 4.416 3.912 12.119zm-4.584-2.256q0-6.24-2.496-9.551-2.496-3.312-6.984-3.312-4.296 0-6.888 3.312-2.568 3.312-2.568 9.551v2.256q0 6.288 2.592 9.623 2.616 3.312 6.912 3.312 4.512 0 6.96-3.312 2.472-3.336 2.472-9.623zm44.878 14.855v3.768h-21.191V8.48h4.632v31.174zm30.622-12.599q0 7.872-3.816 12.359-3.816 4.488-10.199 4.488-6.216 0-10.151-4.488-3.936-4.488-3.936-12.359v-2.208q0-7.848 3.912-12.335Q198.419 8 204.635 8q6.336 0 10.151 4.44 3.84 4.416 3.912 12.119zm-4.584-2.256q0-6.24-2.496-9.551-2.496-3.312-6.984-3.312-4.296 0-6.888 3.312-2.568 3.312-2.568 9.551v2.256q0 6.288 2.592 9.623 2.616 3.312 6.912 3.312 4.512 0 6.96-3.312 2.472-3.336 2.472-9.623zm37.319 1.224v12.791q-.984 1.44-3.744 3.264-2.76 1.824-8.616 1.824-6.384 0-10.487-4.368-4.104-4.392-4.104-12.239v-2.712q0-7.8 3.648-12.191Q231.778 8 238.545 8q6 0 9.095 3.024 3.12 3.024 3.792 7.68H246.8q-.48-2.832-2.376-4.872-1.872-2.04-5.88-2.04-4.824 0-7.104 3.408-2.28 3.384-2.304 9.215v2.88q0 6.048 2.736 9.455 2.736 3.384 7.224 3.384 3.72 0 5.376-.864 1.656-.888 2.352-1.68v-7.824h-8.088v-3.744zm34.558 1.032q0 7.872-3.816 12.359-3.816 4.488-10.199 4.488-6.216 0-10.151-4.488-3.936-4.488-3.936-12.359v-2.208q0-7.848 3.912-12.335Q265.712 8 271.927 8q6.336 0 10.151 4.44 3.84 4.416 3.912 12.119zm-4.584-2.256q0-6.24-2.496-9.551-2.496-3.312-6.984-3.312-4.296 0-6.888 3.312-2.568 3.312-2.568 9.551v2.256q0 6.288 2.592 9.623 2.616 3.312 6.912 3.312 4.512 0 6.96-3.312 2.472-3.336 2.472-9.623zM85.818 84l10.84-28.437h3.301L110.837 84h-3.867l-2.715-7.441H92.361L89.665 84zm7.676-10.527h9.648l-4.824-13.262zm41.093-17.91L124.06 84h-3.34l-10.508-28.437h4.082L122.361 79l8.145-23.437zM134.216 84l10.84-28.437h3.301L159.236 84h-3.867l-2.715-7.441h-11.895L138.064 84zm7.676-10.527h9.648l-4.824-13.262zm25.195-17.91V84h-3.77V55.563zm24.082 25.371V84h-17.246V55.563h3.77v25.371zM193.103 84l10.84-28.437h3.301L218.122 84h-3.867l-2.715-7.441h-11.895L196.95 84zm7.676-10.527h9.648l-4.824-13.262zm40.507 2.324q0 3.984-2.578 6.094Q236.15 84 231.892 84h-9.961V55.563h9.316q4.375 0 6.816 1.816 2.461 1.797 2.461 5.762 0 1.973-1.133 3.516-1.113 1.523-3.066 2.363 2.402.664 3.672 2.52 1.289 1.855 1.289 4.258zM225.7 58.648v9.023h5.664q2.422 0 3.906-1.211 1.484-1.211 1.484-3.359 0-4.355-5.273-4.453zm11.836 17.188q0-2.383-1.309-3.75-1.289-1.387-4.16-1.387H225.7v10.234h6.191q2.676 0 4.16-1.367 1.484-1.387 1.484-3.73zm26.563 5.098V84h-17.246V55.563h3.77v25.371zM268.396 84V55.563h17.871v3.086h-14.102v9.141h12.305v3.066h-12.305v10.078h14.297V84z" transform="matrix(2.79269 0 0 2.79269 0 -2.792712)" fill="gray"/><a transform="scale(2.7926899)"><g fill="gray"><path d="M36.498 0C14.989 0 0 6.453 0 12.244c0 2.862 3.685 5.882 9.986 8.209a6.39 6.39 0 0 1 .871-1.096 6.35 6.35 0 0 1 8.973 0l4.313 4.313c3.818.49 7.904.818 12.355.818s8.538-.329 12.355-.818l4.313-4.312a6.35 6.35 0 0 1 8.973 0c.338.338.627.708.873 1.096 6.301-2.327 9.986-5.346 9.986-8.209C72.998 6.453 58.007 0 36.498 0zM0 41.373v14.551c.004 2.766 3.505 5.665 9.424 7.957a6.32 6.32 0 0 1 1.436-2.215l12.3-12.303C13.502 48.067 4.803 45.39 0 41.373zm72.998 0c-4.803 4.017-13.502 6.694-23.16 7.99l12.301 12.303a6.32 6.32 0 0 1 1.436 2.217c5.924-2.293 9.424-5.197 9.424-7.965zm-36.5 12.602L23.234 67.238c4.056.563 8.465.924 13.264.924a95.93 95.93 0 0 0 13.266-.924z"/><path d="M72.998 19.535c-2.241 1.874-5.386 3.434-9.02 4.729a6.32 6.32 0 0 1-1.84 4.07L45.475 45l.803.803c16.095-1.59 26.721-6.863 26.721-11.721zM0 19.537v14.549c.007 4.857 10.631 10.128 26.721 11.717l.803-.803-16.666-16.666a6.32 6.32 0 0 1-1.84-4.072C5.385 22.967 2.241 21.411 0 19.537zm28.57 8.561l7.928 7.926 7.926-7.926c-2.631.204-5.285.342-7.926.342s-5.295-.137-7.928-.342zM0 63.211v14.545C.001 83.548 14.99 90 36.498 90s36.5-6.453 36.5-12.244V63.211c-2.297 1.921-5.536 3.512-9.287 4.824a6.31 6.31 0 0 1-1.572 2.605 6.32 6.32 0 0 1-8.908.058c-5.331.926-11.074 1.416-16.732 1.416s-11.399-.49-16.73-1.416c-1.23 1.197-2.825 1.801-4.422 1.801-1.624 0-3.247-.62-4.486-1.859a6.31 6.31 0 0 1-1.572-2.605C5.536 66.723 2.297 65.132 0 63.211z"/></g></a></svg>