<?xml version="1.0" encoding="UTF-8" standalone="no"?>
<!-- Generator: Adobe Illustrator 16.0.0, SVG Export Plug-In . SVG Version: 6.00 Build 0)  -->

<svg
   version="1.1"
   id="Capa_1"
   x="0px"
   y="0px"
   width="500"
   height="500"
   viewBox="0 0 499.99999 499.99999"
   xml:space="preserve"
   sodipodi:docname="database-nologo.svg"
   inkscape:version="1.1.2 (0a00cf5339, 2022-02-04)"
   xmlns:inkscape="http://www.inkscape.org/namespaces/inkscape"
   xmlns:sodipodi="http://sodipodi.sourceforge.net/DTD/sodipodi-0.dtd"
   xmlns="http://www.w3.org/2000/svg"
   xmlns:svg="http://www.w3.org/2000/svg"
   xmlns:rdf="http://www.w3.org/1999/02/22-rdf-syntax-ns#"
   xmlns:cc="http://creativecommons.org/ns#"
   xmlns:dc="http://purl.org/dc/elements/1.1/"><sodipodi:namedview
   id="namedview41"
   pagecolor="#505050"
   bordercolor="#eeeeee"
   borderopacity="1"
   inkscape:pageshadow="0"
   inkscape:pageopacity="0"
   inkscape:pagecheckerboard="0"
   showgrid="false"
   inkscape:zoom="1.324"
   inkscape:cx="250"
   inkscape:cy="249.62236"
   inkscape:window-width="2478"
   inkscape:window-height="1409"
   inkscape:window-x="2560"
   inkscape:window-y="0"
   inkscape:window-maximized="1"
   inkscape:current-layer="text41013" /><metadata
   id="metadata45"><rdf:RDF><cc:Work
       rdf:about=""><dc:format>image/svg+xml</dc:format><dc:type
         rdf:resource="http://purl.org/dc/dcmitype/StillImage" /></cc:Work></rdf:RDF></metadata><defs
   id="defs43" /><g
   id="g10" /><g
   id="g12" /><g
   id="g14" /><g
   id="g16" /><g
   id="g18" /><g
   id="g20" /><g
   id="g22" /><g
   id="g24" /><g
   id="g26" /><g
   id="g28" /><g
   id="g30" /><g
   id="g32" /><g
   id="g34" /><g
   id="g36" /><g
   id="g38" />
<g
   id="g69350"
   transform="translate(50.000005)"><path
     style="fill:#cccccc;stroke-width:1"
     id="path2"
     d="m 199.99006,272.47528 c -93.88505,0 -172.470315,-27.51974 -193.949625,-64.77572 C 2.2452933,214.29635 0,221.09184 0,228.1059 v 60.84149 c 0,47.03194 89.533553,85.10257 199.99006,85.10257 110.45651,0 200.00993,-38.07063 200.00993,-85.10257 V 228.1059 c 0,-7.03393 -2.24529,-13.80955 -6.0603,-20.40634 -21.47931,37.25598 -100.02484,64.77572 -193.94963,64.77572 z" /><path
     style="fill:#cccccc;stroke-width:1"
     id="path4"
     d="M 199.99006,398.17196 C 106.10501,398.17196 27.519745,370.533 6.040435,333.43599 2.2452933,339.9533 0,346.70905 0,353.78271 v 60.88123 c 0,46.9922 89.533553,85.10258 199.99006,85.10258 110.45651,0 200.00993,-38.11038 200.00993,-85.10258 v -60.88123 c 0,-7.05379 -2.24529,-13.80954 -6.0603,-20.32685 -21.47931,37.07714 -100.02484,64.7161 -193.94963,64.7161 z" /><path
     style="fill:#cccccc;stroke-width:1"
     id="path6"
     d="M 394.49604,86.115939 C 390.62142,120.53052 305.16119,148.09001 199.99006,148.09001 94.858673,148.09001 9.3587003,120.53052 5.4840792,86.115939 2.0664646,92.394812 0,98.892253 0,105.58839 v 60.82162 c 0,47.07168 89.533553,85.10258 199.99006,85.10258 110.45651,0 200.00993,-38.0309 200.00993,-85.10258 v -60.82162 c 0,-6.696137 -2.04659,-13.193578 -5.50395,-19.472451 z" /><ellipse
     style="fill:#cccccc;stroke-width:1"
     id="ellipse8"
     ry="64.398186"
     rx="194.86365"
     cy="64.398186"
     cx="199.99005" /></g><g
   aria-label="NO LOGO AVAILABLE"
   id="text41013"
   style="font-size:66.6667px;line-height:143.6%;font-family:'Times New Roman';-inkscape-font-specification:'Times New Roman';text-align:end;letter-spacing:0px;word-spacing:0px;text-anchor:end;stroke-width:1px"
   transform="translate(-6.192585)"><path
     d="m 106.76217,169.76885 h 11.97917 l 26.98569,33.10549 V 177.4186 q 0,-4.06902 -0.91146,-5.07813 -1.20442,-1.36719 -3.80859,-1.36719 h -1.52995 v -1.20443 h 15.36459 v 1.20443 h -1.5625 q -2.79948,0 -3.97136,1.69271 -0.71614,1.04167 -0.71614,4.75261 v 37.20705 h -1.17188 l -29.10158,-35.5469 v 27.18101 q 0,4.06901 0.87891,5.07812 1.23698,1.36719 3.8086,1.36719 h 1.5625 v 1.20443 h -15.36459 v -1.20443 h 1.52994 q 2.83204,0 4.00391,-1.69271 0.71615,-1.04166 0.71615,-4.7526 v -30.69663 q -1.92058,-2.2461 -2.92969,-2.96225 -0.97656,-0.71614 -2.89714,-1.33463 -0.94401,-0.29297 -2.86458,-0.29297 z"
     style="text-align:center;text-anchor:middle;fill:#4d4d4d"
     id="path70350" /><path
     d="m 180.16716,168.75974 q 8.59375,0 14.87631,6.54297 6.3151,6.51042 6.3151,16.27605 0,10.0586 -6.34766,16.69923 -6.34766,6.64063 -15.36459,6.64063 -9.11459,0 -15.33204,-6.47787 -6.1849,-6.47787 -6.1849,-16.76433 0,-10.51433 7.16147,-17.15496 6.21745,-5.76172 14.87631,-5.76172 z m -0.61849,2.3763 q -5.92449,0 -9.50522,4.39453 -4.45964,5.46876 -4.45964,16.01564 0,10.80729 4.6224,16.63412 3.54818,4.42709 9.37501,4.42709 6.21745,0 10.25391,-4.85027 4.06901,-4.85026 4.06901,-15.29948 0,-11.32814 -4.45964,-16.89454 -3.58073,-4.42709 -9.89583,-4.42709 z"
     style="text-align:center;text-anchor:middle;fill:#4d4d4d"
     id="path70352" /><path
     d="m 258.81304,201.70246 1.07422,0.22787 -3.77605,11.97917 h -34.1797 v -1.20443 h 1.66015 q 2.79948,0 4.00391,-1.82292 0.6836,-1.04166 0.6836,-4.81771 v -28.48308 q 0,-4.13412 -0.91146,-5.17579 -1.26954,-1.43229 -3.77605,-1.43229 h -1.66015 v -1.20443 h 19.98699 v 1.20443 q -3.51563,-0.0325 -4.94792,0.65104 -1.39974,0.6836 -1.92058,1.72526 -0.52083,1.04167 -0.52083,4.98047 v 27.73439 q 0,2.70183 0.52083,3.71094 0.39063,0.6836 1.20443,1.00912 0.8138,0.32552 5.07813,0.32552 h 3.22266 q 5.07812,0 7.12891,-0.7487 2.05078,-0.7487 3.74349,-2.63672 1.69271,-1.92057 3.38542,-6.02214 z"
     style="text-align:center;text-anchor:middle;fill:#4d4d4d"
     id="path70354" /><path
     d="m 285.70106,168.75974 q 8.59376,0 14.87631,6.54297 6.31511,6.51042 6.31511,16.27605 0,10.0586 -6.34766,16.69923 -6.34766,6.64063 -15.36459,6.64063 -9.11459,0 -15.33204,-6.47787 -6.1849,-6.47787 -6.1849,-16.76433 0,-10.51433 7.16146,-17.15496 6.21746,-5.76172 14.87631,-5.76172 z m -0.61849,2.3763 q -5.92448,0 -9.50521,4.39453 -4.45964,5.46876 -4.45964,16.01564 0,10.80729 4.6224,16.63412 3.54818,4.42709 9.37501,4.42709 6.21745,0 10.25391,-4.85027 4.06901,-4.85026 4.06901,-15.29948 0,-11.32814 -4.45964,-16.89454 -3.58073,-4.42709 -9.89584,-4.42709 z"
     style="text-align:center;text-anchor:middle;fill:#4d4d4d"
     id="path70356" /><path
     d="m 350.38209,168.75974 1.13933,13.9323 h -1.13933 q -1.72526,-5.20834 -4.45963,-7.84506 -3.93881,-3.8086 -10.12371,-3.8086 -8.43099,0 -12.82553,6.67318 -3.67838,5.63152 -3.67838,13.41147 0,6.31511 2.4414,11.52344 2.44141,5.20834 6.38022,7.64975 3.97135,2.40885 8.13802,2.40885 2.44141,0 4.72006,-0.61849 2.27864,-0.61849 4.39453,-1.82292 v -12.76042 q 0,-3.32031 -0.52083,-4.32943 -0.48829,-1.04167 -1.5625,-1.5625 -1.04167,-0.55338 -3.71094,-0.55338 v -1.23698 h 17.08985 v 1.23698 h -0.8138 q -2.53907,0 -3.48308,1.6927 -0.65104,1.20443 -0.65104,4.75261 v 13.50912 q -3.74349,2.01823 -7.38933,2.96224 -3.64583,0.94402 -8.10547,0.94402 -12.79298,0 -19.4336,-8.20313 -4.98048,-6.15235 -4.98048,-14.19272 0,-5.82683 2.79948,-11.16537 3.32032,-6.34766 9.11459,-9.76563 4.85027,-2.83203 11.45834,-2.83203 2.40886,0 4.36198,0.39062 1.98568,0.39063 5.59897,1.72526 1.82291,0.6836 2.4414,0.6836 0.61849,0 1.04167,-0.55339 0.45573,-0.58594 0.55339,-2.24609 z"
     style="text-align:center;text-anchor:middle;fill:#4d4d4d"
     id="path70358" /><path
     d="m 381.99019,168.75974 q 8.59375,0 14.87631,6.54297 6.31511,6.51042 6.31511,16.27605 0,10.0586 -6.34766,16.69923 -6.34766,6.64063 -15.3646,6.64063 -9.11458,0 -15.33203,-6.47787 -6.1849,-6.47787 -6.1849,-16.76433 0,-10.51433 7.16146,-17.15496 6.21745,-5.76172 14.87631,-5.76172 z m -0.61849,2.3763 q -5.92448,0 -9.50522,4.39453 -4.45963,5.46876 -4.45963,16.01564 0,10.80729 4.6224,16.63412 3.54817,4.42709 9.375,4.42709 6.21745,0 10.25391,-4.85027 4.06901,-4.85026 4.06901,-15.29948 0,-11.32814 -4.45963,-16.89454 -3.58073,-4.42709 -9.89584,-4.42709 z"
     style="text-align:center;text-anchor:middle;fill:#4d4d4d"
     id="path70360" /><path
     d="M 105.08573,311.73981 H 87.995882 l -2.994794,6.96615 q -1.106771,2.57162 -1.106771,3.84115 0,1.00911 0.944011,1.79036 0.976563,0.7487 4.166669,0.97657 v 1.20442 H 75.10525 v -1.20442 q 2.766928,-0.48828 3.580731,-1.26954 1.660157,-1.5625 3.678387,-6.34765 L 97.89172,281.3687 h 1.139324 l 15.364596,36.71877 q 1.85547,4.42709 3.35286,5.76172 1.52995,1.30209 4.23177,1.46485 v 1.20442 H 104.5649 v -1.20442 q 2.63672,-0.13021 3.54818,-0.87891 0.94401,-0.7487 0.94401,-1.82292 0,-1.43229 -1.30208,-4.52474 z m -0.91145,-2.40885 -7.486988,-17.83856 -7.682295,17.83856 z"
     style="text-align:center;text-anchor:middle;fill:#4d4d4d"
     id="path70362" /><path
     d="m 161.46597,282.37782 v 1.20442 q -2.34375,0.42318 -3.54818,1.4974 -1.72526,1.59505 -3.0599,4.88282 l -15.39714,37.56512 h -1.20443 l -16.53646,-38.05341 q -1.26954,-2.92969 -1.79037,-3.58073 -0.8138,-1.00911 -2.01823,-1.5625 -1.17188,-0.58594 -3.19011,-0.7487 v -1.20442 h 18.03387 v 1.20442 q -3.0599,0.29297 -3.97136,1.04167 -0.91146,0.7487 -0.91146,1.92057 0,1.62761 1.4974,5.07813 l 11.23047,25.87892 10.41668,-25.5534 q 1.52995,-3.77604 1.52995,-5.24088 0,-0.94402 -0.94402,-1.79037 -0.94401,-0.87891 -3.1901,-1.23698 -0.16276,-0.0325 -0.55339,-0.0977 v -1.20442 z"
     style="text-align:center;text-anchor:middle;fill:#4d4d4d"
     id="path70364" /><path
     d="m 184.18734,311.73981 h -17.08985 l -2.99479,6.96615 q -1.10677,2.57162 -1.10677,3.84115 0,1.00911 0.94401,1.79036 0.97656,0.7487 4.16666,0.97657 v 1.20442 h -13.89974 v -1.20442 q 2.76693,-0.48828 3.58073,-1.26954 1.66016,-1.5625 3.67839,-6.34765 l 15.52735,-36.32815 h 1.13932 l 15.36459,36.71877 q 1.85547,4.42709 3.35287,5.76172 1.52995,1.30209 4.23177,1.46485 v 1.20442 h -17.41537 v -1.20442 q 2.63672,-0.13021 3.54818,-0.87891 0.94401,-0.7487 0.94401,-1.82292 0,-1.43229 -1.30209,-4.52474 z m -0.91146,-2.40885 -7.48698,-17.83856 -7.6823,17.83856 z"
     style="text-align:center;text-anchor:middle;fill:#4d4d4d"
     id="path70366" /><path
     d="m 222.40351,325.31404 v 1.20442 h -18.91277 v -1.20442 h 1.5625 q 2.73437,0 3.97135,-1.59506 0.78125,-1.04166 0.78125,-5.01302 v -28.51564 q 0,-3.35287 -0.42317,-4.42709 -0.32553,-0.8138 -1.33464,-1.39974 -1.43229,-0.78125 -2.99479,-0.78125 h -1.5625 v -1.20442 h 18.91277 v 1.20442 h -1.59506 q -2.70182,0 -3.9388,1.59506 -0.8138,1.04166 -0.8138,5.01302 v 28.51564 q 0,3.35287 0.42317,4.42709 0.32552,0.8138 1.36719,1.39974 1.39974,0.78125 2.96224,0.78125 z"
     style="text-align:center;text-anchor:middle;fill:#4d4d4d"
     id="path70368" /><path
     d="m 262.24728,314.31143 1.07422,0.22786 -3.77604,11.97917 h -34.17971 v -1.20442 h 1.66016 q 2.79948,0 4.00391,-1.82292 0.68359,-1.04167 0.68359,-4.81771 v -28.48309 q 0,-4.13412 -0.91146,-5.17578 -1.26953,-1.4323 -3.77604,-1.4323 h -1.66016 v -1.20442 h 19.98699 v 1.20442 q -3.51562,-0.0326 -4.94792,0.65105 -1.39974,0.68359 -1.92057,1.72526 -0.52083,1.04166 -0.52083,4.98047 v 27.73439 q 0,2.70182 0.52083,3.71094 0.39063,0.68359 1.20443,1.00911 0.8138,0.32552 5.07813,0.32552 h 3.22265 q 5.07813,0 7.12891,-0.74869 2.05079,-0.7487 3.74349,-2.63672 1.69271,-1.92058 3.38542,-6.02214 z"
     style="text-align:center;text-anchor:middle;fill:#4d4d4d"
     id="path70370" /><path
     d="m 295.25511,311.73981 h -17.08986 l -2.99479,6.96615 q -1.10677,2.57162 -1.10677,3.84115 0,1.00911 0.94401,1.79036 0.97656,0.7487 4.16667,0.97657 v 1.20442 h -13.89975 v -1.20442 q 2.76693,-0.48828 3.58073,-1.26954 1.66016,-1.5625 3.67839,-6.34765 l 15.52735,-36.32815 h 1.13933 l 15.36459,36.71877 q 1.85547,4.42709 3.35286,5.76172 1.52995,1.30209 4.23178,1.46485 v 1.20442 h -17.41538 v -1.20442 q 2.63672,-0.13021 3.54818,-0.87891 0.94401,-0.7487 0.94401,-1.82292 0,-1.43229 -1.30208,-4.52474 z m -0.91146,-2.40885 -7.48698,-17.83856 -7.6823,17.83856 z"
     style="text-align:center;text-anchor:middle;fill:#4d4d4d"
     id="path70372" /><path
     d="m 343.69264,303.99241 q 4.58984,0.97656 6.86849,3.125 3.15755,2.9948 3.15755,7.32423 0,3.28776 -2.08333,6.3151 -2.08333,2.9948 -5.72917,4.39454 -3.61328,1.36718 -11.06771,1.36718 h -20.83335 v -1.20442 h 1.66016 q 2.76693,0 3.97136,-1.75782 0.74869,-1.13932 0.74869,-4.85026 v -28.51564 q 0,-4.10156 -0.94401,-5.17578 -1.26953,-1.4323 -3.77604,-1.4323 h -1.66016 v -1.20442 h 19.07553 q 5.33855,0 8.56121,0.78125 4.88281,1.17187 7.45443,4.16667 2.57161,2.96224 2.57161,6.83594 0,3.32031 -2.01823,5.95703 -2.01823,2.60417 -5.95703,3.8737 z m -17.0573,-1.75781 q 1.20442,0.22786 2.73437,0.35807 1.5625,0.0977 3.41797,0.0977 4.75261,0 7.12891,-1.00912 2.40886,-1.04167 3.67839,-3.15755 1.26953,-2.11589 1.26953,-4.6224 0,-3.8737 -3.15755,-6.60808 -3.15755,-2.73437 -9.21224,-2.73437 -3.25522,0 -5.85938,0.71614 z m 0,21.09376 q 3.77604,0.87891 7.45443,0.87891 5.89193,0 8.98438,-2.63672 3.09245,-2.66928 3.09245,-6.57553 0,-2.57162 -1.39974,-4.94792 -1.39974,-2.3763 -4.5573,-3.74349 -3.15755,-1.36719 -7.8125,-1.36719 -2.01823,0 -3.45052,0.0651 -1.4323,0.0651 -2.3112,0.22786 z"
     style="text-align:center;text-anchor:middle;fill:#4d4d4d"
     id="path70374" /><path
     d="m 395.58067,314.31143 1.07422,0.22786 -3.77604,11.97917 h -34.17971 v -1.20442 h 1.66016 q 2.79948,0 4.00391,-1.82292 0.68359,-1.04167 0.68359,-4.81771 v -28.48309 q 0,-4.13412 -0.91146,-5.17578 -1.26953,-1.4323 -3.77604,-1.4323 h -1.66016 v -1.20442 h 19.98699 v 1.20442 q -3.51562,-0.0326 -4.94792,0.65105 -1.39974,0.68359 -1.92057,1.72526 -0.52083,1.04166 -0.52083,4.98047 v 27.73439 q 0,2.70182 0.52083,3.71094 0.39062,0.68359 1.20443,1.00911 0.8138,0.32552 5.07812,0.32552 h 3.22266 q 5.07813,0 7.12891,-0.74869 2.05078,-0.7487 3.74349,-2.63672 1.69271,-1.92058 3.38542,-6.02214 z"
     style="text-align:center;text-anchor:middle;fill:#4d4d4d"
     id="path70376" /><path
     d="m 412.01949,284.78667 v 17.44793 h 9.70053 q 3.77604,0 5.04557,-1.13933 1.69271,-1.49739 1.88803,-5.27344 h 1.20442 v 15.3646 h -1.20442 q -0.45573,-3.22266 -0.91146,-4.13412 -0.58594,-1.13933 -1.92058,-1.79037 -1.33463,-0.65104 -4.10156,-0.65104 h -9.70053 v 14.55079 q 0,2.92969 0.26042,3.58073 0.26042,0.61849 0.91146,1.00912 0.65104,0.35807 2.47396,0.35807 h 7.48698 q 3.74349,0 5.4362,-0.52083 1.69271,-0.52084 3.25521,-2.05079 2.01823,-2.01823 4.13412,-6.08724 h 1.30208 l -3.80859,11.06771 h -34.01695 v -1.20442 h 1.5625 q 1.5625,0 2.96224,-0.7487 1.04167,-0.52084 1.39974,-1.5625 0.39063,-1.04167 0.39063,-4.26433 v -28.6784 q 0,-4.19922 -0.84636,-5.17578 -1.17187,-1.30209 -3.90625,-1.30209 h -1.5625 v -1.20442 h 34.01695 l 0.48828,9.66797 h -1.26953 q -0.6836,-3.48307 -1.52995,-4.78516 -0.81381,-1.30208 -2.44141,-1.98568 -1.30208,-0.48828 -4.58985,-0.48828 z"
     style="text-align:center;text-anchor:middle;fill:#4d4d4d"
     id="path70378" /></g></svg>
