<?xml version="1.0" encoding="UTF-8" standalone="no"?>
<svg
   width="1200"
   height="630.002"
   viewBox="0 0 317.5 166.688"
   version="1.1"
   id="svg6"
   sodipodi:docname="dbdb_io-card-template.svg"
   inkscape:version="1.4.3 (0d15f75042, 2025-12-25)"
   xmlns:inkscape="http://www.inkscape.org/namespaces/inkscape"
   xmlns:sodipodi="http://sodipodi.sourceforge.net/DTD/sodipodi-0.dtd"
   xmlns="http://www.w3.org/2000/svg"
   xmlns:svg="http://www.w3.org/2000/svg">
  <defs
     id="defs6" />
  <sodipodi:namedview
     id="namedview6"
     pagecolor="#ffffff"
     bordercolor="#000000"
     borderopacity="0.25"
     inkscape:showpageshadow="2"
     inkscape:pageopacity="0.0"
     inkscape:pagecheckerboard="0"
     inkscape:deskcolor="#d1d1d1"
     inkscape:zoom="0.69949691"
     inkscape:cx="584.70594"
     inkscape:cy="258.7574"
     inkscape:window-width="1782"
     inkscape:window-height="1134"
     inkscape:window-x="0"
     inkscape:window-y="0"
     inkscape:window-maximized="1"
     inkscape:current-layer="svg6"
     showgrid="false"
     showguides="true">
    <sodipodi:guide
       position="66.145086,252.33815"
       orientation="1,0"
       id="guide2"
       inkscape:locked="false" />
  </sodipodi:namedview>
  <path
     d="M0 0h317.5v166.688H0z"
     fill="#faf8f3"
     id="path1"
     style="fill:#c8102e;fill-opacity:1" />
  <path
     d="M 63.499994,3.9690173 H 313.53122 V 162.719 H 63.499994 Z"
     fill="#faf8f3"
     id="path1-6"
     style="fill:#f4f4f4;fill-opacity:1;stroke-width:0.866024" />
  <g
     transform="matrix(.9 0 0 .9 130.298501 -156.101617)"
     id="g6">
    <path
       d="M-79.201 272.518q0 .186-.133.322-.129.136-.326.136-.197 0-.33-.136-.129-.136-.129-.322 0-.193.133-.326.133-.133.326-.133.193 0 .326.133.133.133.133.326zm1.808.083l.595.095-.03.171h-1.24l.58-3.298-.489-.095.03-.171h1.134zm.815-4.462q0 .167-.121.288-.121.121-.292.121-.167 0-.288-.121-.121-.121-.121-.288 0-.171.121-.292.121-.121.288-.121.171 0 .292.121.121.121.121.292zm1.854 4.803q-.629 0-1.008-.402-.379-.406-.379-1.092 0-.61.262-1.13.262-.519.724-.815.466-.296 1.046-.296.629 0 1.008.406.379.402.379 1.088 0 .61-.262 1.13-.262.519-.728.815-.462.296-1.043.296zm-.72-1.365q0 .512.197.785.201.269.557.269.345 0 .656-.277.315-.277.497-.754.182-.481.182-1.031 0-.523-.201-.792-.197-.273-.569-.273-.345 0-.656.277-.307.277-.485.758-.178.478-.178 1.039zm-44.994-54.839c4.752 0 8.261 1.079 10.525 3.238 2.277 2.146 3.416 5.43 3.416 9.853 0 4.542-1.086 7.925-3.258 10.149-2.172 2.212-5.457 3.317-9.853 3.317l-13.408-.079v-1.441l3.396-.533v-22.55l-3.396-.513v-1.441zm7.385 13.25c0-3.818-.698-6.615-2.093-8.392-1.395-1.79-3.666-2.686-6.812-2.686h-1.461v22.057c1.264.105 2.409.158 3.436.158 1.711 0 3.061-.369 4.048-1.106 1-.737 1.731-1.889 2.192-3.456.461-1.58.691-3.772.691-6.576zm8.085 13.23v-1.441l3.416-.533v-22.55l-3.416-.513v-1.441h12.855c3.515 0 6.108.474 7.78 1.422 1.672.935 2.508 2.455 2.508 4.561 0 1.58-.494 2.942-1.481 4.088s-2.31 1.896-3.969 2.251c2.462.25 4.324.921 5.588 2.014 1.264 1.079 1.896 2.554 1.896 4.423 0 2.567-.948 4.515-2.843 5.845s-4.614 1.994-8.155 1.994l-9.004-.118zm18.66-7.721c0-1.751-.441-3.054-1.323-3.91-.869-.856-2.297-1.284-4.285-1.284h-3.416v10.742a113.81 113.81 0 0 0 4.482.118c1.54 0 2.679-.467 3.416-1.402.75-.935 1.125-2.356 1.125-4.265zm-1.994-12.223c0-1.54-.336-2.653-1.007-3.337-.658-.684-1.751-1.027-3.278-1.027h-2.745v9.221h2.903c1.409 0 2.448-.369 3.12-1.106s1.007-1.988 1.007-3.752zm-32.136 23.104c4.752 0 8.261 1.079 10.525 3.238 2.277 2.146 3.416 5.43 3.416 9.853 0 4.542-1.086 7.925-3.258 10.149-2.172 2.212-5.457 3.317-9.853 3.317l-13.408-.079v-1.441l3.396-.533v-22.55l-3.396-.513v-1.441zm7.385 13.25c0-3.818-.698-6.615-2.093-8.392-1.395-1.79-3.666-2.686-6.812-2.686h-1.461v22.057c1.264.105 2.409.158 3.436.158 1.711 0 3.061-.369 4.048-1.106 1-.737 1.731-1.889 2.192-3.456.461-1.58.691-3.772.691-6.576zm8.085 13.23v-1.441l3.416-.533v-22.55l-3.416-.513v-1.441h12.855c3.515 0 6.108.474 7.78 1.422 1.672.935 2.508 2.455 2.508 4.561 0 1.58-.494 2.942-1.481 4.088s-2.31 1.896-3.969 2.251c2.462.25 4.324.921 5.588 2.014 1.264 1.079 1.896 2.554 1.896 4.423 0 2.567-.948 4.515-2.843 5.845s-4.614 1.994-8.155 1.994l-9.004-.118zm18.66-7.721c0-1.751-.441-3.054-1.323-3.91-.869-.856-2.297-1.284-4.285-1.284h-3.416v10.742a113.81 113.81 0 0 0 4.482.118c1.54 0 2.679-.467 3.416-1.402.75-.935 1.125-2.356 1.125-4.265zm-1.994-12.223c0-1.54-.336-2.653-1.007-3.337-.658-.684-1.751-1.027-3.278-1.027h-2.745v9.222h2.903c1.409 0 2.448-.369 3.12-1.106s1.007-1.988 1.007-3.752z"
       transform="matrix(.877193 0 0 .877193 -16.335396 39.846193)"
       fill="#fff"
       id="path3" />
    <g
       fill="#fff"
       id="g5">
      <path
         d="M-127.593 288.69q0-1.538-.643-2.283-.643-.75-1.92-.75h-1.238l-.087-.372h1.606q1.258 0 2.133.387.88.387 1.34 1.127.464.735.464 1.785 0 1.195-.508 2.002-.508.803-1.383 1.209-.871.406-1.973.406h-1.678l.087-.372h1.393q.774 0 1.311-.314.537-.314.817-1.006.281-.692.281-1.819zm-5.422 3.511v-.16l.793-.213v-6.176l-.793-.208v-.16h2.409v6.916zm10.695-3.168l.01.232q-.508.174-.827.334-.314.16-.484.329-.164.164-.227.358-.063.189-.063.421 0 .401.184.59.189.189.474.189.203 0 .353-.082.155-.082.237-.247.087-.169.087-.426v-2.273q0-.426-.222-.658-.222-.232-.672-.232-.227 0-.43.029-.198.024-.324.073l.218-.256q-.029.281-.063.489-.034.208-.082.353-.043.14-.102.218-.077.097-.222.16-.145.058-.319.058-.222 0-.339-.077-.116-.082-.116-.232 0-.213.213-.43.213-.218.561-.401.348-.189.769-.3.426-.116.851-.116.614 0 .982.179.372.174.537.503.169.324.169.764v2.694q0 .135.043.222.043.082.121.121.082.039.189.039.135 0 .266-.039.135-.039.276-.126v.203q-.368.377-.677.503-.31.121-.682.121-.343 0-.547-.135-.203-.135-.295-.406-.092-.276-.106-.692l.048.029q-.092.387-.281.653-.189.266-.455.406-.266.14-.59.14-.667 0-1.054-.334-.382-.339-.382-.938 0-.305.106-.547.106-.242.411-.459.305-.218.895-.455.595-.242 1.562-.547zm4.129 1.761q0 .334.203.498.208.164.595.164.218 0 .459-.034.242-.034.571-.121v.189q-.493.329-.822.508-.329.179-.585.252-.252.073-.513.073-.382 0-.682-.145-.295-.15-.464-.459-.169-.314-.169-.803v-2.839l-.701-.518v-.102q.053-.034.203-.116.15-.087.358-.208.213-.121.459-.266.252-.145.513-.3.261-.155.498-.295h.077v1.122zm-.527-2.873v-.672h2.191l-.092.672zm5.637 1.112l.01.232q-.508.174-.827.334-.314.16-.484.329-.164.164-.227.358-.063.189-.063.421 0 .401.184.59.189.189.474.189.203 0 .353-.082.155-.082.237-.247.087-.169.087-.426v-2.273q0-.426-.222-.658-.222-.232-.672-.232-.227 0-.43.029-.198.024-.324.073l.218-.256q-.029.281-.063.489-.034.208-.082.353-.043.14-.102.218-.077.097-.222.16-.145.058-.319.058-.222 0-.339-.077-.116-.082-.116-.232 0-.213.213-.43.213-.218.561-.401.348-.189.769-.3.426-.116.851-.116.614 0 .982.179.372.174.537.503.169.324.169.764v2.694q0 .135.043.222.043.082.121.121.082.039.189.039.135 0 .266-.039.135-.039.276-.126v.203q-.368.377-.677.503-.31.121-.682.121-.343 0-.547-.135-.203-.135-.295-.406-.092-.276-.106-.692l.048.029q-.092.387-.281.653-.189.266-.455.406-.266.14-.59.14-.667 0-1.054-.334-.382-.339-.382-.938 0-.305.106-.547.106-.242.411-.459.305-.218.895-.455.595-.242 1.562-.547zm2.946 2.854l.605-.077-1.079.571-.068-.043.227-1.209v-4.943q-.063-.048-.174-.131-.106-.087-.256-.203-.15-.121-.339-.271v-.111l2.128-.464h.087l-.039.904v5.204q0 .276.111.484.116.208.319.324.208.116.469.116.363 0 .619-.222.261-.227.397-.711.14-.484.14-1.253 0-.677-.135-1.098-.131-.421-.401-.614-.266-.193-.682-.193-.198 0-.382.043-.184.043-.363.14-.174.097-.353.266l-.043-.131q.324-.348.58-.566.261-.222.479-.343.218-.126.416-.174.203-.048.406-.048.609 0 1.045.271.435.271.667.784.232.513.232 1.243 0 .701-.208 1.238-.203.537-.58.904-.372.368-.88.556-.508.189-1.117.189-.319 0-.634-.043-.31-.043-.609-.14-.3-.097-.585-.247zm8.222-2.854l.01.232q-.508.174-.827.334-.314.16-.484.329-.164.164-.227.358-.063.189-.063.421 0 .401.184.59.189.189.474.189.203 0 .353-.082.155-.082.237-.247.087-.169.087-.426v-2.273q0-.426-.222-.658-.222-.232-.672-.232-.227 0-.43.029-.198.024-.324.073l.218-.256q-.029.281-.063.489-.034.208-.082.353-.044.14-.102.218-.077.097-.222.16-.145.058-.319.058-.222 0-.339-.077-.116-.082-.116-.232 0-.213.213-.43.213-.218.561-.401.348-.189.769-.3.426-.116.851-.116.614 0 .982.179.372.174.537.503.169.324.169.764v2.694q0 .135.044.222.044.082.121.121.082.039.189.039.135 0 .266-.039.135-.039.276-.126v.203q-.368.377-.677.503-.31.121-.682.121-.343 0-.547-.135-.203-.135-.295-.406-.092-.276-.106-.692l.048.029q-.092.387-.281.653-.189.266-.455.406-.266.14-.59.14-.667 0-1.054-.334-.382-.339-.382-.938 0-.305.106-.547.106-.242.411-.459.305-.218.895-.455.595-.242 1.562-.547zm4.324-1.901q.382 0 .672.063.295.063.6.193l.184 1.34h-.155l-.735-1.316.421.426q-.266-.252-.503-.353-.232-.106-.522-.106-.421 0-.643.169-.222.164-.222.493 0 .184.082.334.082.15.334.3.256.145.779.319.387.131.648.295.266.164.421.368.155.203.222.445.068.242.068.522 0 .498-.276.88-.271.382-.74.6-.469.213-1.069.213-.445 0-.774-.073-.324-.073-.58-.203l-.271-1.543h.174l.88 1.562-.276-.271q.131.092.276.155.15.058.305.092.16.029.319.029.416 0 .711-.218.3-.218.3-.663 0-.174-.063-.314-.058-.14-.198-.266-.135-.126-.372-.242-.232-.116-.59-.227-.474-.155-.764-.363-.29-.208-.421-.479-.131-.276-.131-.629 0-.474.252-.817.256-.343.687-.527.435-.189.972-.189zm4.735 0q.576 0 .987.232.411.227.648.667.237.435.281 1.064h-3.25v-.348h2.588l-.629.222q-.039-.571-.135-.904-.092-.339-.252-.484-.16-.15-.397-.15-.3 0-.518.179-.213.179-.324.571-.111.392-.111 1.025 0 .769.189 1.243.189.474.556.692.368.213.9.213.266 0 .503-.063.237-.063.455-.203.222-.14.421-.363l.102.082q-.324.566-.653.895-.329.329-.692.474-.358.14-.788.14-.687 0-1.219-.29-.532-.29-.832-.846-.3-.561-.3-1.359 0-.726.285-1.335.285-.614.837-.982.551-.372 1.349-.372z"
         id="path4" />
      <path
         d="M-127.251 298.208q0-1.636-.684-2.428-.684-.797-2.042-.797h-1.317l-.093-.396h1.708q1.337 0 2.268.411.936.411 1.425 1.198.494.782.494 1.898 0 1.27-.54 2.129-.54.854-1.471 1.286-.926.432-2.098.432h-1.785l.093-.396h1.481q.823 0 1.394-.334.571-.334.869-1.07.298-.735.298-1.934zm-5.765 3.734v-.17l.843-.226v-6.568l-.843-.221v-.17h2.561v7.355zm11.373-3.369l.01.247q-.54.185-.879.355-.334.17-.514.35-.175.175-.242.381-.067.201-.067.447 0 .427.195.627.201.201.504.201.216 0 .375-.087.165-.087.252-.262.093-.18.093-.453v-2.417q0-.453-.237-.699-.237-.247-.715-.247-.242 0-.458.031-.211.026-.345.077l.231-.273q-.031.298-.067.519-.036.221-.087.375-.046.149-.108.231-.082.103-.237.17-.154.062-.339.062-.237 0-.36-.082-.123-.087-.123-.247 0-.226.226-.458.226-.231.597-.427.37-.201.818-.319.453-.123.905-.123.653 0 1.044.19.396.185.571.535.18.345.18.813v2.865q0 .144.046.237.046.087.129.129.087.041.201.041.144 0 .283-.041.144-.041.293-.134v.216q-.391.401-.72.535-.329.129-.725.129-.365 0-.581-.144-.216-.144-.314-.432-.098-.293-.113-.735l.051.031q-.098.411-.298.694-.201.283-.483.432-.283.149-.627.149-.71 0-1.121-.355-.406-.36-.406-.998 0-.324.113-.581.113-.257.437-.489.324-.231.951-.483.633-.257 1.661-.581zm4.391 1.872q0 .355.216.53.221.175.633.175.231 0 .489-.036.257-.036.607-.129v.201q-.525.35-.874.54-.35.19-.622.267-.267.077-.545.077-.406 0-.725-.154-.314-.159-.494-.489-.18-.334-.18-.854v-3.019l-.746-.55v-.108q.057-.036.216-.123.159-.093.381-.221.226-.129.489-.283.267-.154.545-.319.278-.165.53-.314h.082v1.193zm-.561-3.055v-.715h2.33l-.098.715zm5.994 1.183l.01.247q-.54.185-.879.355-.334.17-.514.35-.175.175-.242.381-.067.201-.067.447 0 .427.195.627.201.201.504.201.216 0 .375-.087.165-.087.252-.262.093-.18.093-.453v-2.417q0-.453-.237-.699-.237-.247-.715-.247-.242 0-.458.031-.211.026-.345.077l.231-.273q-.031.298-.067.519-.036.221-.087.375-.046.149-.108.231-.082.103-.237.17-.154.062-.339.062-.237 0-.36-.082-.123-.087-.123-.247 0-.226.226-.458.226-.231.597-.427.37-.201.818-.319.453-.123.905-.123.653 0 1.044.19.396.185.571.535.18.345.18.813v2.865q0 .144.046.237.046.087.129.129.087.041.201.041.144 0 .283-.041.144-.041.293-.134v.216q-.391.401-.72.535-.329.129-.725.129-.365 0-.581-.144-.216-.144-.314-.432-.098-.293-.113-.735l.051.031q-.098.411-.298.694-.201.283-.483.432-.283.149-.627.149-.71 0-1.121-.355-.406-.36-.406-.998 0-.324.113-.581.113-.257.437-.489.324-.231.951-.483.633-.257 1.661-.581zm3.132 3.034l.643-.082-1.147.607-.072-.046.242-1.286v-5.256q-.067-.051-.185-.139-.113-.093-.273-.216-.159-.129-.36-.288v-.118l2.263-.494h.093l-.041.962v5.534q0 .293.118.514.123.221.339.345.221.123.499.123.386 0 .658-.237.278-.242.422-.756.149-.514.149-1.332 0-.72-.144-1.167-.139-.447-.427-.653-.283-.206-.725-.206-.211 0-.406.046-.195.046-.386.149-.185.103-.375.283l-.046-.139q.345-.37.617-.602.278-.237.509-.365.231-.134.442-.185.216-.051.432-.051.648 0 1.111.288.463.288.71.833.247.545.247 1.322 0 .746-.221 1.317-.216.571-.617.962-.396.391-.936.591-.54.201-1.188.201-.339 0-.674-.046-.329-.046-.648-.149-.319-.103-.622-.262zm8.743-3.034l.01.247q-.54.185-.879.355-.334.17-.514.35-.175.175-.242.381-.067.201-.067.447 0 .427.195.627.201.201.504.201.216 0 .375-.087.165-.087.252-.262.093-.18.093-.453v-2.417q0-.453-.237-.699-.237-.247-.715-.247-.242 0-.458.031-.211.026-.345.077l.231-.273q-.031.298-.067.519-.036.221-.087.375-.046.149-.108.231-.082.103-.237.17-.154.062-.339.062-.237 0-.36-.082-.123-.087-.123-.247 0-.226.226-.458.226-.231.597-.427.37-.201.818-.319.453-.123.905-.123.653 0 1.044.19.396.185.571.535.18.345.18.813v2.865q0 .144.046.237.046.087.129.129.087.041.201.041.144 0 .283-.041.144-.041.293-.134v.216q-.391.401-.72.535-.329.129-.725.129-.365 0-.581-.144-.216-.144-.314-.432-.098-.293-.113-.735l.051.031q-.098.411-.298.694-.201.283-.483.432-.283.149-.627.149-.71 0-1.121-.355-.406-.36-.406-.998 0-.324.113-.581.113-.257.437-.489.324-.231.951-.483.633-.257 1.661-.581zm4.598-2.021q.406 0 .715.067.314.067.638.206l.195 1.425h-.165l-.782-1.399.447.453q-.283-.267-.535-.375-.247-.113-.555-.113-.447 0-.684.18-.237.175-.237.525 0 .195.087.355.087.159.355.319.273.154.828.339.411.139.689.314.283.175.447.391.165.216.237.473.072.257.072.555 0 .53-.293.936-.288.406-.787.638-.499.226-1.137.226-.473 0-.823-.077-.345-.077-.617-.216l-.288-1.641h.185l.936 1.661-.293-.288q.139.098.293.165.159.062.324.098.17.031.339.031.442 0 .756-.231.319-.231.319-.705 0-.185-.067-.334-.062-.149-.211-.283-.144-.134-.396-.257-.247-.123-.627-.242-.504-.165-.813-.386-.309-.221-.447-.509-.139-.293-.139-.669 0-.504.267-.869.273-.365.73-.561.463-.201 1.034-.201zm5.035 0q.612 0 1.049.247.437.242.689.71.252.463.298 1.131h-3.456v-.37h2.752l-.669.237q-.041-.607-.144-.962-.098-.36-.267-.514-.17-.159-.422-.159-.319 0-.55.19-.226.19-.345.607-.118.417-.118 1.09 0 .818.201 1.322.201.504.591.735.391.226.957.226.283 0 .535-.067.252-.067.483-.216.237-.149.447-.386l.108.087q-.345.602-.694.951-.35.35-.735.504-.381.149-.838.149-.73 0-1.296-.309-.566-.309-.885-.9-.319-.597-.319-1.445 0-.771.303-1.42.303-.653.89-1.044.586-.396 1.435-.396zm4.788 0q.406 0 .715.067.314.067.638.206l.195 1.425h-.165l-.782-1.399.447.453q-.283-.267-.535-.375-.247-.113-.555-.113-.447 0-.684.18-.237.175-.237.525 0 .195.087.355.087.159.355.319.273.154.828.339.411.139.689.314.283.175.447.391.165.216.237.473.072.257.072.555 0 .53-.293.936-.288.406-.787.638-.499.226-1.137.226-.473 0-.823-.077-.345-.077-.617-.216l-.288-1.641h.185l.936 1.661-.293-.288q.139.098.293.165.159.062.324.098.17.031.339.031.442 0 .756-.231.319-.231.319-.705 0-.185-.067-.334-.062-.149-.211-.283-.144-.134-.396-.257-.247-.123-.627-.242-.504-.165-.813-.386-.309-.221-.447-.509-.139-.293-.139-.669 0-.504.267-.869.273-.365.73-.561.463-.201 1.034-.201z"
         id="path5" />
    </g>
    <path
       d="M-86.267 287.001q.401 0 .667.169.271.164.406.484.135.314.135.769 0 .667-.232 1.33-.232.658-.634 1.2-.397.542-.909.871-.513.324-1.074.324-.397 0-.667-.164-.271-.169-.406-.489-.135-.319-.135-.769 0-.667.232-1.325.232-.663.629-1.204.401-.542.914-.866.513-.329 1.074-.329zm-1.625 4.982q.29 0 .585-.237.3-.242.566-.648.266-.411.474-.929.208-.518.329-1.079.121-.561.121-1.103 0-.416-.111-.619-.106-.203-.353-.203-.29 0-.59.242-.295.237-.561.648-.266.406-.474.924-.208.518-.329 1.079-.121.561-.121 1.103 0 .416.106.619.111.203.358.203zm3.478-4.634l.044-.252h2.849l-.048.252zm.827 3.555q-.232.929-.518 1.577-.285.653-.605 1.05-.314.401-.643.585-.329.184-.648.184-.334 0-.518-.164-.184-.164-.184-.43 0-.213.131-.372.126-.155.353-.155.193 0 .256.102.063.106.005.372-.058.266-.019.343.034.077.16.077.169 0 .343-.116.169-.111.343-.382.174-.271.343-.74.169-.469.329-1.175l.992-4.358q.189-.822.585-1.359.401-.537.914-.803.518-.266 1.05-.266.29 0 .469.073.184.073.266.198.082.126.082.29 0 .295-.189.469-.189.174-.474.174-.184 0-.237-.126-.048-.131 0-.397.048-.271-.005-.382-.053-.111-.208-.111-.247 0-.503.193-.256.189-.484.605-.227.411-.397 1.083z"
       fill="#1c1a17"
       id="path6" />
  </g>
</svg>
