<svg xmlns="http://www.w3.org/2000/svg" width="1200" height="630.002" viewBox="0 0 317.5 166.688" xmlns:v="https://vecta.io/nano"><path d="M0 0h317.5v166.688H0z" fill="#c8102e"/><rect width="250.031" height="158.75" x="63.5" y="3.969" rx="4.762" fill="#f4f4f4"/><path d="M50.423 94.906q0 .147-.105.254-.102.107-.257.107-.156 0-.261-.107-.102-.107-.102-.254 0-.152.105-.257.105-.105.257-.105.152 0 .257.105.105.105.105.257zm1.427.066l.47.075-.024.135h-.979l.458-2.604-.386-.075.024-.135h.895zm.643-3.523q0 .132-.096.227-.096.096-.231.096-.132 0-.227-.096-.096-.096-.096-.227 0-.135.096-.231.096-.096.227-.096.135 0 .231.096.096.096.096.231zm1.464 3.792q-.497 0-.796-.317-.299-.321-.299-.862 0-.482.207-.892.207-.41.572-.643.368-.234.826-.234.497 0 .796.321.299.317.299.859 0 .482-.207.892-.207.41-.575.643-.365.234-.823.234zm-.568-1.078q0 .404.156.62.159.212.44.212.272 0 .518-.219.249-.219.392-.595.144-.38.144-.814 0-.413-.159-.625-.156-.216-.449-.216-.272 0-.518.219-.242.219-.383.598-.141.377-.141.82zM17.867 50.869c3.752 0 6.522.852 8.309 2.556 1.798 1.694 2.697 4.287 2.697 7.779 0 3.586-.857 6.257-2.572 8.012-1.715 1.746-4.308 2.619-7.779 2.619l-10.585-.062v-1.138l2.681-.421V52.412l-2.681-.405v-1.138zm5.83 10.461c0-3.014-.551-5.222-1.652-6.625-1.101-1.413-2.894-2.121-5.378-2.121h-1.153v17.413l2.713.125c1.351 0 2.417-.291 3.196-.873.789-.582 1.367-1.491 1.731-2.728.364-1.247.546-2.978.546-5.192zm6.383 10.445v-1.138l2.697-.421V52.413l-2.697-.405V50.87h10.149c2.775 0 4.822.374 6.142 1.123 1.32.738 1.98 1.938 1.98 3.601 0 1.247-.39 2.323-1.169 3.227s-1.824 1.497-3.133 1.777c1.944.197 3.414.727 4.412 1.59.998.852 1.497 2.016 1.497 3.492 0 2.027-.748 3.564-2.244 4.614s-3.643 1.574-6.438 1.574l-7.108-.093zm14.732-6.096c0-1.382-.348-2.411-1.044-3.087-.686-.676-1.813-1.014-3.383-1.014h-2.697v8.481l3.538.093c1.216 0 2.115-.369 2.697-1.107.592-.738.888-1.86.888-3.367zm-1.574-9.65c0-1.216-.265-2.094-.795-2.634-.519-.54-1.382-.811-2.588-.811h-2.167v7.28h2.292c1.112 0 1.933-.291 2.463-.873s.795-1.569.795-2.962zm-25.371 18.24c3.752 0 6.522.852 8.309 2.556 1.798 1.694 2.697 4.287 2.697 7.779 0 3.586-.857 6.257-2.572 8.012-1.715 1.746-4.308 2.619-7.779 2.619l-10.585-.062v-1.138l2.681-.421V75.812l-2.681-.405v-1.138zm5.83 10.461c0-3.014-.551-5.222-1.652-6.625-1.101-1.413-2.894-2.121-5.378-2.121h-1.153v17.413l2.713.125c1.351 0 2.417-.291 3.196-.873.789-.582 1.367-1.491 1.731-2.728.364-1.247.546-2.978.546-5.192zm6.383 10.445v-1.138l2.697-.421V75.813l-2.697-.405V74.27h10.149c2.775 0 4.822.374 6.142 1.123 1.32.738 1.98 1.938 1.98 3.601 0 1.247-.39 2.323-1.169 3.227s-1.824 1.497-3.133 1.777c1.944.197 3.414.727 4.412 1.59.998.852 1.497 2.016 1.497 3.492 0 2.027-.748 3.564-2.244 4.614s-3.643 1.574-6.438 1.574l-7.108-.093zm14.732-6.096c0-1.382-.348-2.411-1.044-3.087-.686-.676-1.813-1.014-3.383-1.014h-2.697v8.481l3.538.093c1.216 0 2.115-.369 2.697-1.107.592-.738.888-1.86.888-3.367zm-1.574-9.65c0-1.216-.265-2.094-.795-2.634-.519-.54-1.382-.811-2.588-.811h-2.167v7.281h2.292c1.112 0 1.933-.291 2.463-.873s.795-1.569.795-2.962z" fill="#fff"/><g transform="matrix(.527529 0 0 .527529 61.254851 80.089018)"><path fill="#fff" d="M-92.218 44.246c0-1.661-.322-2.886-.965-3.677s-1.593-1.185-2.85-1.185h-2.144l-.215-.755h2.817c1.4 0 2.585.209 3.555.628s1.712 1.035 2.216 1.847.761 1.796.761 2.96c0 1.312-.284 2.413-.849 3.302a5.34 5.34 0 0 1-2.299 2.017c-.97.452-2.067.678-3.291.678h-2.91l.215-.755h2.365c.763 0 1.412-.168 1.946-.507s.94-.883 1.224-1.626.424-1.717.424-2.927zm-8.853 5.815v-.298l1.246-.391V39.307l-1.246-.375v-.303h4.344v11.432zm17.621-5.077v.469c-.467.158-.846.313-1.136.463s-.507.302-.661.463a1.35 1.35 0 0 0-.314.524 2.25 2.25 0 0 0-.083.634c0 .419.084.725.254.915s.391.281.667.281a.88.88 0 0 0 .469-.121c.135-.08.243-.2.32-.358s.116-.364.116-.606v-3.688c0-.411-.11-.733-.331-.965s-.561-.347-1.02-.347c-.229 0-.44.011-.634.033s-.362.058-.502.105l.331-.496-.127.887c-.041.236-.085.424-.132.568s-.105.258-.171.342c-.088.114-.219.208-.391.281s-.357.11-.562.11c-.273 0-.474-.045-.606-.138a.44.44 0 0 1-.198-.386c0-.238.119-.482.358-.733s.557-.481.954-.695.849-.383 1.345-.513a6.07 6.07 0 0 1 1.516-.193c.708 0 1.273.103 1.692.309s.725.491.91.865.276.816.276 1.323v4.184c0 .136.019.248.061.336s.101.153.182.193.182.061.292.061c.128 0 .256-.017.386-.05s.266-.091.402-.165v.424c-.39.361-.763.615-1.119.761s-.75.215-1.18.215c-.408 0-.736-.076-.981-.226s-.427-.387-.54-.7-.174-.706-.187-1.18l.099.061c-.107.456-.265.835-.474 1.136s-.462.522-.755.672a2.14 2.14 0 0 1-.987.226c-.743 0-1.317-.186-1.725-.557s-.612-.882-.612-1.532c0-.327.058-.62.176-.882s.342-.514.672-.75.813-.482 1.45-.733 1.469-.525 2.503-.827zm7.309 2.657c0 .346.107.605.325.777s.546.259.976.259a5.56 5.56 0 0 0 .761-.055c.267-.036.58-.102.937-.198v.386l-1.367.887c-.383.214-.728.362-1.036.446a3.27 3.27 0 0 1-.91.132c-.482 0-.901-.085-1.257-.254a1.86 1.86 0 0 1-.832-.794c-.198-.356-.298-.812-.298-1.367v-4.288l-1.213-.959v-.226l.413-.237.689-.391.849-.485.898-.513.832-.48h.232zm-1.053-4.399v-1.218h3.759l-.165 1.218zm9.134 1.742v.469c-.467.158-.846.313-1.136.463s-.507.302-.661.463a1.35 1.35 0 0 0-.314.524 2.25 2.25 0 0 0-.083.634c0 .419.084.725.254.915s.391.281.667.281a.88.88 0 0 0 .469-.121c.135-.08.243-.2.32-.358s.116-.364.116-.606v-3.688c0-.411-.11-.733-.331-.965s-.561-.347-1.02-.347c-.229 0-.44.011-.634.033s-.362.058-.502.105l.331-.496-.127.887c-.041.236-.085.424-.132.568s-.105.258-.171.342c-.088.114-.219.208-.391.281s-.357.11-.562.11c-.273 0-.474-.045-.606-.138a.44.44 0 0 1-.198-.386c0-.238.119-.482.358-.733s.557-.481.954-.695.849-.383 1.345-.513a6.07 6.07 0 0 1 1.516-.193c.708 0 1.273.103 1.692.309s.725.491.91.865.276.816.276 1.323v4.184c0 .136.019.248.061.336s.101.153.182.193.182.061.292.061c.128 0 .256-.017.386-.05s.266-.091.402-.165v.424c-.39.361-.763.615-1.119.761s-.75.215-1.18.215c-.408 0-.736-.076-.981-.226s-.427-.387-.54-.7-.174-.706-.187-1.18l.099.061c-.107.456-.265.835-.474 1.136s-.462.522-.755.672a2.14 2.14 0 0 1-.987.226c-.743 0-1.317-.186-1.725-.557s-.612-.882-.612-1.532c0-.327.058-.62.176-.882s.342-.514.672-.75.813-.482 1.45-.733 1.469-.525 2.503-.827zm5.067 4.559l.981-.066-1.819.871-.16-.094.375-1.946V40.31l-.287-.265-.43-.364-.562-.458v-.243l3.853-.882h.193l-.061 1.637v8.544c0 .287.05.537.149.75a1.17 1.17 0 0 0 .435.491 1.22 1.22 0 0 0 .667.176c.338 0 .628-.112.871-.336s.427-.595.557-1.102.193-1.191.193-2.039c0-.717-.065-1.29-.193-1.72s-.318-.747-.579-.943-.584-.298-.981-.298c-.181 0-.357.019-.529.055a2.15 2.15 0 0 0-.513.182 2.58 2.58 0 0 0-.507.336l-.121-.32.932-.843c.278-.22.536-.393.772-.518a2.8 2.8 0 0 1 .689-.259c.22-.051.444-.077.672-.077.668 0 1.237.146 1.709.435s.83.708 1.08 1.262.375 1.233.375 2.034c0 .772-.119 1.452-.353 2.039a4.08 4.08 0 0 1-.992 1.483 4.16 4.16 0 0 1-1.477.904c-.562.201-1.173.303-1.83.303-.364 0-.719-.026-1.064-.077s-.682-.125-1.02-.232-.677-.251-1.025-.424zm13.344-4.559v.469c-.467.158-.846.313-1.136.463s-.507.302-.661.463a1.35 1.35 0 0 0-.314.524 2.25 2.25 0 0 0-.083.634c0 .419.084.725.254.915s.391.281.667.281a.88.88 0 0 0 .469-.121c.135-.08.243-.2.32-.358s.116-.364.116-.606v-3.688c0-.411-.11-.733-.331-.965s-.561-.347-1.02-.347c-.229 0-.44.011-.634.033s-.362.058-.502.105l.331-.496-.127.887c-.041.236-.085.424-.132.568s-.105.258-.171.342c-.088.114-.219.208-.391.281s-.357.11-.562.11c-.273 0-.474-.045-.606-.138a.44.44 0 0 1-.198-.386c0-.238.119-.482.358-.733s.557-.481.954-.695.849-.383 1.345-.513a6.07 6.07 0 0 1 1.516-.193c.708 0 1.273.103 1.692.309s.725.491.91.865.276.816.276 1.323v4.184c0 .136.019.248.061.336s.101.153.182.193.182.061.292.061c.128 0 .256-.017.386-.05s.266-.091.402-.165v.424c-.39.361-.763.615-1.119.761s-.75.215-1.18.215c-.408 0-.736-.076-.981-.226s-.427-.387-.54-.7-.174-.706-.187-1.18l.099.061c-.107.456-.265.835-.474 1.136s-.462.522-.755.672a2.14 2.14 0 0 1-.987.226c-.743 0-1.317-.186-1.725-.557s-.612-.882-.612-1.532c0-.327.058-.62.176-.882s.342-.514.672-.75.813-.482 1.45-.733 1.469-.525 2.503-.827zm7.316-3.169c.452 0 .845.033 1.18.099a6 6 0 0 1 1.031.309l.281 2.194h-.309l-1.262-2.15.722.7c-.28-.234-.548-.402-.805-.502a2.14 2.14 0 0 0-.805-.154c-.46 0-.808.083-1.042.248s-.353.412-.353.739c0 .192.047.364.143.518s.282.3.562.446.697.302 1.257.474c.415.13.766.281 1.053.458s.524.372.7.595.31.473.391.744.121.571.121.893c0 .573-.154 1.073-.463 1.499s-.726.759-1.262.998-1.155.353-1.852.353c-.507 0-.951-.039-1.328-.116s-.708-.183-.987-.32l-.402-2.486h.342l1.466 2.503-.623-.507a2.75 2.75 0 0 0 .496.243c.168.063.342.109.518.138s.35.044.524.044c.466 0 .852-.107 1.158-.325s.463-.548.463-.998c0-.179-.033-.342-.099-.485s-.176-.276-.331-.397-.356-.244-.612-.358a7.69 7.69 0 0 0-.959-.347c-.504-.154-.918-.339-1.24-.557s-.557-.482-.711-.788-.226-.657-.226-1.058c0-.543.141-1.011.424-1.406s.675-.701 1.169-.915 1.053-.325 1.67-.325zm7.754 0c.672 0 1.243.135 1.714.402a2.75 2.75 0 0 1 1.108 1.152c.267.504.427 1.111.48 1.819h-5.407v-.65l4.217-.044-1.24.408c-.03-.62-.088-1.111-.176-1.472s-.212-.619-.369-.777-.35-.237-.584-.237c-.276 0-.513.085-.711.254s-.351.449-.458.849-.154.948-.154 1.643c0 .783.099 1.419.298 1.907s.496.847.882 1.075.857.342 1.417.342c.278 0 .54-.03.783-.094s.48-.163.711-.303a3.61 3.61 0 0 0 .7-.557l.215.215c-.364.61-.732 1.101-1.102 1.472s-.758.642-1.169.81-.854.248-1.339.248c-.787 0-1.476-.164-2.067-.491s-1.053-.795-1.384-1.406-.491-1.335-.491-2.177c0-.785.156-1.512.469-2.177a3.88 3.88 0 0 1 1.395-1.604c.613-.404 1.368-.606 2.265-.606zm0 0"/><path fill="#1c1a17" d="M-22.469 41.837c.558 0 1.025.11 1.4.331s.663.528.854.932.292.887.292 1.45a5.85 5.85 0 0 1-.391 2.111 6.43 6.43 0 0 1-1.075 1.836c-.456.54-.98.97-1.571 1.29a3.94 3.94 0 0 1-1.88.474c-.551 0-1.018-.109-1.4-.325s-.666-.532-.86-.937-.287-.89-.287-1.45c0-.728.13-1.43.391-2.111a6.32 6.32 0 0 1 1.075-1.83c.455-.543.978-.973 1.571-1.29s1.218-.48 1.88-.48zm-2.447 7.96c.278 0 .568-.135.865-.408s.582-.635.854-1.091a9.69 9.69 0 0 0 .728-1.527c.216-.562.387-1.137.513-1.725s.193-1.153.193-1.687c0-.375-.05-.645-.149-.81s-.258-.248-.474-.248c-.284 0-.573.136-.871.408s-.577.637-.849 1.091a9.88 9.88 0 0 0-.733 1.527c-.214.562-.384 1.138-.513 1.725s-.193 1.151-.193 1.687c0 .372.05.642.149.81s.262.248.48.248zm5.763-7.188l.099-.573h5.683l-.11.573zm2.42 5.264c-.273 1.107-.587 2.045-.943 2.817s-.743 1.4-1.158 1.874-.842.824-1.29 1.042a3.15 3.15 0 0 1-1.373.325c-.529 0-.932-.12-1.207-.358a1.13 1.13 0 0 1-.419-.904c0-.284.087-.524.259-.722s.408-.298.706-.298c.265 0 .444.072.535.215s.12.386.083.717-.023.548.039.656.171.165.336.165c.185 0 .364-.052.54-.154s.347-.276.513-.518.325-.576.48-.998.3-.948.441-1.588l1.659-7.596c.201-.915.546-1.703 1.031-2.365s1.071-1.175 1.758-1.532 1.433-.535 2.238-.535c.4 0 .728.05.981.149s.438.234.557.402.176.361.176.573c0 .353-.114.638-.342.854s-.51.32-.843.32c-.236 0-.395-.083-.48-.248s-.114-.411-.088-.728-.005-.542-.094-.667-.223-.187-.413-.187c-.28 0-.546.091-.799.27s-.488.466-.7.865-.4.929-.568 1.593zm0 0"/><path fill="#fff" d="M-90.66 60.551c0-1.953-.379-3.394-1.134-4.324s-1.873-1.394-3.351-1.394h-2.522l-.253-.888h3.313c1.647 0 3.04.246 4.181.739s2.013 1.217 2.606 2.172.895 2.112.895 3.481c0 1.543-.334 2.838-.998 3.883a6.28 6.28 0 0 1-2.703 2.373c-1.141.532-2.431.797-3.87.797h-3.423l.253-.888h2.781c.898 0 1.661-.198 2.288-.596s1.105-1.039 1.439-1.912.499-2.019.499-3.442zm-10.411 6.839v-.35l1.465-.46V54.743l-1.465-.441v-.357h5.108V67.39zm20.722-5.97v.551c-.549.186-.995.368-1.335.545s-.596.355-.778.545a1.59 1.59 0 0 0-.37.616c-.065.22-.097.47-.097.745 0 .493.099.852.298 1.076s.46.331.784.331c.211 0 .395-.047.551-.143s.285-.235.376-.421.136-.428.136-.713v-4.337c0-.483-.13-.862-.389-1.134s-.66-.408-1.199-.408a6.63 6.63 0 0 0-.745.039c-.23.026-.426.068-.59.123l.389-.583-.149 1.044a4.99 4.99 0 0 1-.156.668c-.057.169-.123.303-.201.402-.104.135-.258.245-.46.331s-.42.13-.661.13c-.321 0-.557-.053-.713-.162a.52.52 0 0 1-.233-.454c0-.28.139-.567.421-.862s.655-.566 1.121-.817.998-.451 1.582-.603a7.14 7.14 0 0 1 1.783-.227c.833 0 1.497.122 1.99.363s.852.577 1.07 1.018.324.959.324 1.556v4.92c0 .16.023.292.071.395a.45.45 0 0 0 .214.227.77.77 0 0 0 .344.071 1.83 1.83 0 0 0 .454-.058 2.18 2.18 0 0 0 .473-.194v.499c-.459.425-.898.723-1.316.895s-.882.253-1.387.253c-.48 0-.865-.089-1.154-.266s-.502-.455-.635-.823-.204-.83-.22-1.387l.117.071c-.126.536-.311.982-.558 1.335a2.45 2.45 0 0 1-.888.791c-.347.177-.733.266-1.16.266-.874 0-1.549-.219-2.029-.655s-.72-1.037-.72-1.802c0-.384.068-.729.207-1.037s.402-.604.791-.882.956-.567 1.705-.862 1.728-.617 2.943-.972zm8.596 3.125c0 .407.126.711.382.914s.642.305 1.147.305a6.52 6.52 0 0 0 .895-.065 8.78 8.78 0 0 0 1.102-.233v.454l-1.608 1.044c-.451.251-.856.426-1.219.525s-.716.156-1.07.156c-.567 0-1.06-.1-1.478-.298s-.746-.514-.979-.933-.35-.955-.35-1.608V59.76l-1.426-1.128v-.266l.486-.279.81-.46.998-.57 1.057-.603.979-.564h.272zm-1.238-5.173v-1.433h4.421l-.194 1.433zm10.742 2.048v.551c-.549.186-.995.368-1.335.545s-.596.355-.778.545a1.59 1.59 0 0 0-.37.616c-.065.22-.097.47-.097.745 0 .493.099.852.298 1.076s.46.331.784.331c.211 0 .395-.047.551-.143s.285-.235.376-.421.136-.428.136-.713v-4.337c0-.483-.13-.862-.389-1.134s-.66-.408-1.199-.408a6.63 6.63 0 0 0-.745.039c-.23.026-.426.068-.59.123l.389-.583-.149 1.044a4.99 4.99 0 0 1-.156.668c-.057.169-.123.303-.201.402-.104.135-.258.245-.46.331s-.42.13-.661.13c-.321 0-.557-.053-.713-.162a.52.52 0 0 1-.233-.454c0-.28.139-.567.421-.862s.655-.566 1.121-.817.998-.451 1.582-.603a7.14 7.14 0 0 1 1.783-.227c.833 0 1.497.122 1.99.363s.852.577 1.07 1.018.324.959.324 1.556v4.92c0 .16.023.292.071.395a.45.45 0 0 0 .214.227.77.77 0 0 0 .344.071 1.83 1.83 0 0 0 .454-.058 2.18 2.18 0 0 0 .473-.194v.499c-.459.425-.898.723-1.316.895s-.882.253-1.387.253c-.48 0-.865-.089-1.154-.266s-.502-.455-.635-.823-.204-.83-.22-1.387l.117.071c-.126.536-.311.982-.558 1.335a2.45 2.45 0 0 1-.888.791c-.347.177-.733.266-1.16.266-.874 0-1.549-.219-2.029-.655s-.72-1.037-.72-1.802c0-.384.068-.729.207-1.037s.402-.604.791-.882.956-.567 1.705-.862 1.728-.617 2.943-.972zm5.961 5.361l1.154-.078-2.139 1.024-.188-.11.441-2.288v-9.406l-.337-.311-.506-.428-.661-.538v-.285l4.531-1.037h.227l-.071 1.925v10.048c0 .337.058.632.175.882s.292.439.512.577.481.207.784.207c.397 0 .739-.131 1.024-.395s.502-.7.655-1.297.227-1.4.227-2.399c0-.843-.076-1.517-.227-2.023s-.374-.878-.681-1.109-.687-.35-1.154-.35a3.04 3.04 0 0 0-.622.065 2.53 2.53 0 0 0-.603.214c-.194.096-.394.227-.596.395l-.143-.376 1.096-.992c.327-.259.63-.462.908-.609s.551-.248.81-.305a3.49 3.49 0 0 1 .791-.091c.786 0 1.455.172 2.01.512s.976.833 1.271 1.485.441 1.45.441 2.392c0 .908-.139 1.708-.415 2.399a4.8 4.8 0 0 1-1.167 1.744 4.89 4.89 0 0 1-1.737 1.063c-.661.237-1.379.357-2.152.357-.428 0-.846-.031-1.251-.091s-.802-.147-1.199-.272-.796-.295-1.206-.499zm15.691-5.361v.551c-.549.186-.995.368-1.335.545s-.596.355-.778.545a1.59 1.59 0 0 0-.37.616c-.065.22-.097.47-.097.745 0 .493.099.852.298 1.076s.46.331.784.331c.211 0 .395-.047.551-.143s.285-.235.376-.421.136-.428.136-.713v-4.337c0-.483-.13-.862-.389-1.134s-.66-.408-1.199-.408a6.63 6.63 0 0 0-.745.039c-.23.026-.426.068-.59.123l.389-.583-.149 1.044a4.99 4.99 0 0 1-.156.668c-.057.169-.123.303-.201.402-.104.135-.258.245-.46.331s-.42.13-.661.13c-.321 0-.557-.053-.713-.162a.52.52 0 0 1-.233-.454c0-.28.139-.567.421-.862s.655-.566 1.121-.817.998-.451 1.582-.603a7.14 7.14 0 0 1 1.783-.227c.833 0 1.497.122 1.99.363s.852.577 1.07 1.018.324.959.324 1.556v4.92c0 .16.023.292.071.395a.45.45 0 0 0 .214.227.77.77 0 0 0 .344.071 1.83 1.83 0 0 0 .454-.058 2.18 2.18 0 0 0 .473-.194v.499c-.459.425-.898.723-1.316.895s-.882.253-1.387.253c-.48 0-.865-.089-1.154-.266s-.502-.455-.635-.823-.204-.83-.22-1.387l.117.071c-.126.536-.311.982-.558 1.335a2.45 2.45 0 0 1-.888.791c-.347.177-.733.266-1.16.266-.874 0-1.549-.219-2.029-.655s-.72-1.037-.72-1.802c0-.384.068-.729.207-1.037s.402-.604.791-.882.956-.567 1.705-.862 1.728-.617 2.943-.972zm8.606-3.727c.532 0 .993.039 1.387.117s.797.199 1.212.363l.331 2.58h-.363l-1.485-2.528.849.823c-.329-.276-.645-.473-.946-.59s-.614-.182-.946-.182c-.541 0-.95.097-1.225.292s-.415.485-.415.869c0 .225.055.428.169.609s.332.353.661.525.82.355 1.478.558c.488.152.901.331 1.238.538s.616.438.823.7a2.58 2.58 0 0 1 .46.875c.094.321.143.671.143 1.05 0 .674-.182 1.262-.545 1.763s-.854.893-1.485 1.173-1.358.415-2.178.415c-.596 0-1.118-.045-1.562-.136s-.833-.216-1.16-.376l-.473-2.924h.402l1.724 2.943-.733-.596c.19.117.384.212.583.285s.402.128.609.162.412.052.616.052c.548 0 1.002-.126 1.361-.382s.545-.645.545-1.173a1.35 1.35 0 0 0-.117-.57c-.078-.169-.207-.324-.389-.467s-.418-.287-.72-.421-.679-.274-1.128-.408c-.593-.182-1.079-.399-1.459-.655s-.655-.567-.836-.927-.266-.773-.266-1.245c0-.639.165-1.19.499-1.653s.794-.825 1.374-1.076 1.238-.382 1.964-.382zm9.118 0c.791 0 1.462.159 2.016.473s.992.763 1.303 1.355.502 1.306.564 2.139h-6.359v-.765l4.959-.052-1.459.48c-.036-.729-.104-1.306-.207-1.731s-.25-.728-.434-.914-.412-.279-.687-.279c-.324 0-.603.1-.836.298s-.413.528-.538.998-.182 1.115-.182 1.932c0 .921.117 1.669.35 2.243s.583.997 1.037 1.264 1.008.402 1.666.402a3.64 3.64 0 0 0 .921-.11c.285-.073.564-.191.836-.357s.551-.382.823-.655l.253.253c-.428.718-.861 1.295-1.297 1.731s-.891.755-1.374.953-1.005.292-1.575.292c-.925 0-1.736-.193-2.431-.577s-1.238-.935-1.627-1.653-.577-1.57-.577-2.561c0-.924.183-1.778.551-2.561s.917-1.41 1.64-1.886 1.609-.713 2.664-.713zm8.713 0c.532 0 .993.039 1.387.117s.797.199 1.212.363l.331 2.58h-.363l-1.485-2.528.849.823c-.329-.276-.645-.473-.946-.59s-.614-.182-.946-.182c-.541 0-.95.097-1.225.292s-.415.485-.415.869c0 .225.055.428.169.609s.332.353.661.525.82.355 1.478.558c.488.152.901.331 1.238.538s.616.438.823.7a2.58 2.58 0 0 1 .46.875c.094.321.143.671.143 1.05 0 .674-.182 1.262-.545 1.763s-.854.893-1.485 1.173-1.358.415-2.178.415c-.596 0-1.118-.045-1.562-.136s-.833-.216-1.16-.376l-.473-2.924h.402l1.724 2.943-.733-.596c.19.117.384.212.583.285s.402.128.609.162.412.052.616.052c.548 0 1.002-.126 1.361-.382s.545-.645.545-1.173a1.35 1.35 0 0 0-.117-.57c-.078-.169-.207-.324-.389-.467s-.418-.287-.72-.421-.679-.274-1.128-.408c-.593-.182-1.079-.399-1.459-.655s-.655-.567-.836-.927-.266-.773-.266-1.245c0-.639.165-1.19.499-1.653s.794-.825 1.374-1.076 1.238-.382 1.964-.382zm0 0"/></g></svg>