<?xml version="1.0" encoding="UTF-8" standalone="no"?>
<svg
   viewBox="0 0 512 512"
   width="512"
   height="512"
   version="1.1"
   id="svg3"
   sodipodi:docname="favicon.svg"
   inkscape:version="1.4.4 (1:1.4.4+202605061432+dcaf3e7d9e)"
   xmlns:inkscape="http://www.inkscape.org/namespaces/inkscape"
   xmlns:sodipodi="http://sodipodi.sourceforge.net/DTD/sodipodi-0.dtd"
   xmlns="http://www.w3.org/2000/svg"
   xmlns:svg="http://www.w3.org/2000/svg">
  <defs
     id="defs3" />
  <sodipodi:namedview
     id="namedview3"
     pagecolor="#505050"
     bordercolor="#eeeeee"
     borderopacity="1"
     inkscape:showpageshadow="0"
     inkscape:pageopacity="0"
     inkscape:pagecheckerboard="0"
     inkscape:deskcolor="#d1d1d1"
     inkscape:zoom="1.1757813"
     inkscape:cx="286.19269"
     inkscape:cy="196.46512"
     inkscape:window-width="2470"
     inkscape:window-height="1412"
     inkscape:window-x="0"
     inkscape:window-y="0"
     inkscape:window-maximized="1"
     inkscape:current-layer="svg3" />
  <rect
     width="512"
     height="512"
     rx="50"
     fill="#c8102e"
     id="rect1"
     x="0"
     y="0" />
  <g
     id="g4"
     transform="translate(-4.5457865)">
    <g
       id="g3"
       transform="matrix(1.1333455,0,0,1.1333455,-44.38499,-26.487544)"
       style="stroke-width:0.882343">
      <path
         d="m 149.06378,83.418961 q 38.28098,0 56.52012,17.390809 18.34518,17.28476 18.34518,52.91471 0,36.58432 -17.49685,54.50533 -17.49685,17.81498 -52.91471,17.81498 l -72.002183,-0.42417 v -7.74103 l 18.239139,-2.86312 V 93.91707 L 81.515337,91.159991 v -7.74103 z m 39.65952,71.153849 q 0,-30.75203 -11.2404,-45.06764 -11.2404,-14.421643 -36.58432,-14.421643 h -7.84707 V 213.53189 q 10.17998,0.84833 18.45122,0.84833 13.7854,0 21.73851,-5.93832 8.05915,-5.93833 11.77061,-18.55727 3.71145,-12.72498 3.71145,-35.31182 z m 43.41534,71.04781 v -7.74103 l 18.34518,-2.86312 V 93.91707 l -18.34518,-2.757079 v -7.74103 h 69.03302 q 28.31309,0 41.78036,7.634989 13.46727,7.528947 13.46727,24.49559 0,12.72498 -7.95312,21.95059 -7.95311,9.22561 -21.31434,12.08873 19.82976,2.01479 30.00975,10.81623 10.17998,8.69541 10.17998,23.7533 0,20.6781 -15.26997,31.38829 -15.26998,10.71019 -43.79515,10.71019 l -48.35492,-0.63625 z m 100.20923,-41.46223 q 0,-14.10352 -7.10479,-20.99622 -6.99873,-6.89269 -23.011,-6.89269 H 283.8869 v 57.68658 q 15.26997,0.63624 24.07142,0.63624 12.40686,0 18.34518,-7.52894 6.04437,-7.52895 6.04437,-22.90497 z m -10.7102,-65.63969 q 0,-12.40686 -5.40811,-17.92101 -5.30208,-5.514163 -17.60289,-5.514163 H 283.8869 v 49.521383 h 15.5881 q 11.34644,0 16.75456,-5.93832 5.40811,-5.93833 5.40811,-20.14789 z"
         id="text1"
         style="font-weight:600;font-size:217.173px;font-family:Georgia, 'Times New Roman', serif;letter-spacing:-6;text-anchor:middle;fill:#faf8f3"
         aria-label="DB" />
      <path
         d="m 149.06378,272.24521 q 38.28098,0 56.52012,17.39081 18.34518,17.28476 18.34518,52.91471 0,36.58432 -17.49685,54.50533 -17.49685,17.81497 -52.91471,17.81497 l -72.002183,-0.42416 v -7.74103 l 18.239139,-2.86312 v -121.0994 l -18.239139,-2.75708 v -7.74103 z m 39.65952,71.15385 q 0,-30.75204 -11.2404,-45.06764 -11.2404,-14.42164 -36.58432,-14.42164 h -7.84707 v 118.44836 q 10.17998,0.84833 18.45122,0.84833 13.7854,0 21.73851,-5.93833 8.05915,-5.93832 11.77061,-18.55726 3.71145,-12.72498 3.71145,-35.31182 z m 43.41534,71.04781 v -7.74103 l 18.34518,-2.86312 v -121.0994 l -18.34518,-2.75708 v -7.74103 h 69.03302 q 28.31309,0 41.78036,7.63499 13.46727,7.52894 13.46727,24.49559 0,12.72498 -7.95312,21.95059 -7.95311,9.22561 -21.31434,12.08873 19.82976,2.01479 30.00975,10.81623 10.17998,8.69541 10.17998,23.7533 0,20.67809 -15.26997,31.38829 -15.26998,10.71019 -43.79515,10.71019 l -48.35492,-0.63625 z m 100.20923,-41.46223 q 0,-14.10352 -7.10479,-20.99622 -6.99873,-6.8927 -23.011,-6.8927 H 283.8869 v 57.68658 q 15.26997,0.63625 24.07142,0.63625 12.40686,0 18.34518,-7.52894 6.04437,-7.52895 6.04437,-22.90497 z m -10.7102,-65.63969 q 0,-12.40686 -5.40811,-17.92102 -5.30208,-5.51415 -17.60289,-5.51415 H 283.8869 v 49.52138 h 15.5881 q 11.34644,0 16.75456,-5.93833 5.40811,-5.93832 5.40811,-20.14788 z"
         id="text2"
         style="font-weight:600;font-size:217.173px;font-family:Georgia, 'Times New Roman', serif;letter-spacing:-6;text-anchor:middle;fill:#faf8f3"
         aria-label="DB" />
    </g>
    <path
       d="m 395.96066,438.50949 q 0,2.20117 -1.57226,3.81836 -1.52735,1.61719 -3.86328,1.61719 -2.33594,0 -3.90821,-1.61719 -1.52734,-1.61719 -1.52734,-3.81836 0,-2.29101 1.57226,-3.86328 1.57227,-1.57227 3.86329,-1.57227 2.29101,0 3.86328,1.57227 1.57226,1.57227 1.57226,3.86328 z m 21.42774,0.98828 7.05273,1.12305 -0.35937,2.02148 H 409.3923 l 6.87305,-39.08203 -5.79492,-1.12304 0.35937,-2.02149 h 13.43164 z m 9.6582,-52.87304 q 0,1.97656 -1.4375,3.41406 -1.4375,1.4375 -3.45898,1.4375 -1.97657,0 -3.41407,-1.4375 -1.4375,-1.4375 -1.4375,-3.41406 0,-2.02149 1.4375,-3.45899 1.4375,-1.4375 3.41407,-1.4375 2.02148,0 3.45898,1.4375 1.4375,1.4375 1.4375,3.45899 z m 21.9668,56.91601 q -7.45703,0 -11.94922,-4.76172 -4.49219,-4.80664 -4.49219,-12.9375 0,-7.23242 3.09961,-13.38672 3.09961,-6.15429 8.58008,-9.6582 5.52539,-3.50391 12.39844,-3.50391 7.45703,0 11.94921,4.80664 4.49219,4.76172 4.49219,12.89258 0,7.23242 -3.09961,13.38672 -3.09961,6.1543 -8.625,9.6582 -5.48047,3.50391 -12.35351,3.50391 z m -8.53516,-16.17187 q 0,6.06445 2.33594,9.29882 2.38086,3.18946 6.60351,3.18946 4.08789,0 7.77149,-3.2793 3.72851,-3.2793 5.88476,-8.93945 2.15625,-5.70508 2.15625,-12.21875 0,-6.19922 -2.38086,-9.38867 -2.33593,-3.23438 -6.73828,-3.23438 -4.08789,0 -7.77148,3.2793 -3.63867,3.27929 -5.75,8.98437 -2.11133,5.66016 -2.11133,12.3086 z"
       id="text3"
       style="font-style:italic;font-size:92px;font-family:Georgia, 'Times New Roman', serif;text-anchor:middle;fill:#faf8f3"
       aria-label=".io" />
  </g>
</svg>
