<?xml version="1.0" encoding="UTF-8" standalone="no"?>
<svg
   width="512"
   height="512"
   version="1.1"
   id="svg2"
   sodipodi:docname="favicon.svg"
   inkscape:version="1.4.4 (1:1.4.4+202605061432+dcaf3e7d9e)"
   xmlns:inkscape="http://www.inkscape.org/namespaces/inkscape"
   xmlns:sodipodi="http://sodipodi.sourceforge.net/DTD/sodipodi-0.dtd"
   xmlns="http://www.w3.org/2000/svg"
   xmlns:svg="http://www.w3.org/2000/svg">
  <defs
     id="defs2" />
  <sodipodi:namedview
     id="namedview2"
     pagecolor="#505050"
     bordercolor="#eeeeee"
     borderopacity="1"
     inkscape:showpageshadow="0"
     inkscape:pageopacity="0"
     inkscape:pagecheckerboard="0"
     inkscape:deskcolor="#d1d1d1"
     inkscape:zoom="1.1757813"
     inkscape:cx="192.21262"
     inkscape:cy="220.27906"
     inkscape:window-width="2470"
     inkscape:window-height="1412"
     inkscape:window-x="0"
     inkscape:window-y="0"
     inkscape:window-maximized="1"
     inkscape:current-layer="svg2" />
  <rect
     width="512"
     height="512"
     rx="100"
     fill="#c8102e"
     id="rect1"
     x="0"
     y="0" />
  <g
     id="g2"
     transform="matrix(0.87071701,0,0,0.87071701,16.827748,33.096446)"
     style="stroke-width:1.14848">
    <path
       d="m 444.09108,463.38448 q 0,1.39267 -0.99467,2.41582 -0.9662,1.02314 -2.44429,1.02314 -1.47809,0 -2.47276,-1.02314 -0.9662,-1.02315 -0.9662,-2.41582 0,-1.44961 0.99467,-2.44429 0.99467,-0.99467 2.44429,-0.99467 1.44961,0 2.44429,0.99467 0.99467,0.99468 0.99467,2.44429 z m 13.55843,0.62515 4.46274,0.71057 -0.22716,1.27878 h -9.29437 l 4.34885,-24.72888 -3.66675,-0.71057 0.22716,-1.27878 h 8.49901 z m 6.11103,-33.45505 q 0,1.25094 -0.90925,2.16019 -0.90925,0.90989 -2.18866,0.90989 -1.25093,0 -2.16018,-0.90926 -0.90926,-0.90925 -0.90926,-2.16018 0,-1.27878 0.90989,-2.18866 0.90988,-0.90926 2.16018,-0.90926 1.27878,0 2.18866,0.90989 0.90989,0.90989 0.90989,2.18866 z m 13.89948,36.01324 q -4.71837,0 -7.56065,-3.01313 -2.84229,-3.0416 -2.84229,-8.1858 0,-4.576 1.96151,-8.47054 1.9615,-3.8939 5.42894,-6.11104 3.49591,-2.21713 7.84475,-2.21713 4.71837,0 7.56066,3.0416 2.84228,3.01312 2.84228,8.15796 0,4.576 -1.9615,8.47054 -1.96151,3.8939 -5.45742,6.11103 -3.46743,2.21714 -7.81691,2.21714 z m -5.40046,-10.23273 q 0,3.83695 1.47808,5.88388 1.50657,2.01782 4.17864,2.01782 2.58666,0 4.91705,-2.07477 2.3595,-2.07476 3.7237,-5.65609 1.36419,-3.6098 1.36419,-7.7315 0,-3.92237 -1.50656,-5.94082 -1.47809,-2.0463 -4.26343,-2.0463 -2.58665,0 -4.91705,2.07477 -2.30255,2.07476 -3.63827,5.68457 -1.33572,3.58133 -1.33572,7.78844 z"
       fill="#faf8f3"
       id="path2"
       style="stroke-width:1.14848" />
    <g
       id="g1"
       transform="matrix(1.2318783,0,0,1.2318783,-59.360845,-38.658305)"
       style="stroke-width:0.932298">
      <path
         d="m 170.5865,68.0545 c 28.924,0 50.27633,6.57 64.057,19.71 13.86067,13.06 20.791,33.05033 20.791,59.971 0,27.642 -6.61,48.233 -19.83,61.773 -13.22,13.46067 -33.21033,20.191 -59.971,20.191 l -81.603,-0.481 v -8.773 l 20.671,-3.245 V 79.9525 l -20.671,-3.125 v -8.773 z m 44.948,80.642 c 0,-23.23533 -4.24633,-40.261 -12.739,-51.077 -8.49267,-10.896667 -22.31367,-16.345 -41.463,-16.345 h -8.893 v 134.243 c 7.69133,0.64067 14.662,0.961 20.912,0.961 10.416,0 18.62833,-2.24333 24.637,-6.73 6.08933,-4.48667 10.536,-11.49733 13.34,-21.032 2.804,-9.61467 4.206,-22.955 4.206,-40.021 z m 49.205,80.522 v -8.773 l 20.791,-3.245 V 79.9525 l -20.791,-3.125 v -8.773 h 78.238 c 21.39267,0 37.17667,2.884333 47.352,8.653 10.17533,5.688667 15.263,14.942667 15.263,27.762 0,9.61467 -3.00467,17.90733 -9.014,24.878 -6.00933,6.97067 -14.06167,11.53767 -24.157,13.701 14.98267,1.522 26.31967,5.60833 34.011,12.259 7.69133,6.57 11.537,15.54367 11.537,26.921 0,15.62333 -5.76867,27.48133 -17.306,35.574 -11.53733,8.092 -28.08233,12.138 -49.635,12.138 l -54.803,-0.721 z m 113.572,-46.991 c 0,-10.656 -2.684,-18.588 -8.052,-23.796 -5.288,-5.208 -13.981,-7.812 -26.079,-7.812 h -20.791 v 65.379 c 11.53733,0.48067 20.631,0.721 27.281,0.721 9.374,0 16.30433,-2.84433 20.791,-8.533 4.56667,-5.68867 6.85,-14.34167 6.85,-25.959 z m -12.138,-74.392 c 0,-9.374 -2.043,-16.144333 -6.129,-20.311 -4.006,-4.166 -10.656,-6.249 -19.95,-6.249 h -16.705 v 56.124 h 17.667 c 8.57267,0 14.90233,-2.24333 18.989,-6.73 4.086,-4.48667 6.129,-12.09833 6.129,-22.835 z"
         fill="#faf8f3"
         id="path1"
         sodipodi:nodetypes="scsccccccccsccsccsccccccccccscssccsccccscsccscsccsccsccc"
         style="stroke-width:0.932298" />
      <path
         d="m 170.5865,248.44816 c 28.924,0 50.27633,6.57 64.057,19.71 13.86067,13.06 20.791,33.05033 20.791,59.971 0,27.642 -6.61,48.233 -19.83,61.773 -13.22,13.46067 -33.21033,20.191 -59.971,20.191 l -81.603,-0.481 v -8.773 l 20.671,-3.245 v -137.248 l -20.671,-3.125 v -8.773 z m 44.948,80.642 c 0,-23.23533 -4.24633,-40.261 -12.739,-51.077 -8.49267,-10.89667 -22.31367,-16.345 -41.463,-16.345 h -8.893 v 134.243 c 7.69133,0.64067 14.662,0.961 20.912,0.961 10.416,0 18.62833,-2.24333 24.637,-6.73 6.08933,-4.48667 10.536,-11.49733 13.34,-21.032 2.804,-9.61467 4.206,-22.955 4.206,-40.021 z m 49.205,80.522 v -8.773 l 20.791,-3.245 v -137.248 l -20.791,-3.125 v -8.773 h 78.238 c 21.39267,0 37.17667,2.88433 47.352,8.653 10.17533,5.68867 15.263,14.94267 15.263,27.762 0,9.61467 -3.00467,17.90733 -9.014,24.878 -6.00933,6.97067 -14.06167,11.53767 -24.157,13.701 14.98267,1.522 26.31967,5.60833 34.011,12.259 7.69133,6.57 11.537,15.54367 11.537,26.921 0,15.62333 -5.76867,27.48133 -17.306,35.574 -11.53733,8.092 -28.08233,12.138 -49.635,12.138 l -54.803,-0.721 z m 113.572,-46.991 c 0,-10.656 -2.684,-18.588 -8.052,-23.796 -5.288,-5.208 -13.981,-7.812 -26.079,-7.812 h -20.791 v 65.379 c 11.53733,0.48067 20.631,0.721 27.281,0.721 9.374,0 16.30433,-2.84433 20.791,-8.533 4.56667,-5.68867 6.85,-14.34167 6.85,-25.959 z m -12.138,-74.392 c 0,-9.374 -2.043,-16.14433 -6.129,-20.311 -4.006,-4.166 -10.656,-6.249 -19.95,-6.249 h -16.705 v 56.125 h 17.667 c 8.57267,0 14.90233,-2.24333 18.989,-6.73 4.086,-4.48667 6.129,-12.09833 6.129,-22.835 z"
         style="fill:#faf8f3;stroke-width:0.932298"
         id="path1-3" />
    </g>
  </g>
</svg>
