<svg xmlns="http://www.w3.org/2000/svg" width="512" height="512" xmlns:v="https://vecta.io/nano"><rect width="512" height="512" rx="50" fill="#c8102e"/><path d="M120.01 68.055q43.386 0 64.057 19.71 20.791 19.59 20.791 59.971 0 41.463-19.83 61.773-19.83 20.191-59.971 20.191l-81.603-.481v-8.773l20.671-3.245V79.953l-20.671-3.125v-8.773zm44.948 80.642q0-34.853-12.739-51.077-12.739-16.345-41.463-16.345h-8.893v134.243q11.537.961 20.912.961 15.624 0 24.637-6.73 9.134-6.73 13.34-21.032 4.206-14.422 4.206-40.021zm49.205 80.522v-8.773l20.791-3.245V79.953l-20.791-3.125v-8.773h78.238q32.089 0 47.352 8.653 15.263 8.533 15.263 27.762 0 14.422-9.014 24.878-9.014 10.456-24.157 13.701 22.474 2.283 34.011 12.259 11.537 9.855 11.537 26.921 0 23.435-17.306 35.574-17.306 12.138-49.635 12.138l-54.803-.721zm113.572-46.991q0-15.984-8.052-23.796-7.932-7.812-26.079-7.812h-20.791v65.379q17.306.721 27.281.721 14.061 0 20.791-8.533 6.85-8.533 6.85-25.959zm-12.138-74.392q0-14.061-6.129-20.311-6.009-6.249-19.95-6.249h-16.705V137.4h17.667q12.859 0 18.989-6.73 6.129-6.73 6.129-22.835zM120.01 282.06q43.386 0 64.057 19.71 20.791 19.59 20.791 59.971 0 41.463-19.83 61.773-19.83 20.191-59.971 20.191l-81.603-.481v-8.773l20.671-3.245V293.958l-20.671-3.125v-8.773zm44.948 80.642q0-34.853-12.739-51.077-12.739-16.345-41.463-16.345h-8.893v134.243q11.537.961 20.912.961 15.624 0 24.637-6.73 9.134-6.73 13.34-21.032 4.206-14.422 4.206-40.021zm49.205 80.522v-8.773l20.791-3.245V293.958l-20.791-3.125v-8.773h78.238q32.089 0 47.352 8.653 15.263 8.533 15.263 27.762 0 14.422-9.014 24.878-9.014 10.456-24.157 13.701 22.474 2.283 34.011 12.259 11.537 9.855 11.537 26.921 0 23.435-17.306 35.574-17.306 12.138-49.635 12.138l-54.803-.721zm113.572-46.991q0-15.984-8.052-23.796-7.932-7.812-26.079-7.812h-20.791v65.379q17.306.721 27.281.721 14.061 0 20.791-8.533 6.85-8.533 6.85-25.959zm-12.138-74.392q0-14.061-6.129-20.311-6.009-6.249-19.95-6.249h-16.705v56.125h17.667q12.859 0 18.989-6.73 6.129-6.73 6.129-22.835z" fill="#faf8f3"/><path d="M391.415 438.509q0 2.201-1.572 3.818-1.527 1.617-3.863 1.617-2.336 0-3.908-1.617-1.527-1.617-1.527-3.818 0-2.291 1.572-3.863 1.572-1.572 3.863-1.572 2.291 0 3.863 1.572 1.572 1.572 1.572 3.863zm21.428.988l7.053 1.123-.359 2.021h-14.689l6.873-39.082-5.795-1.123.359-2.021h13.432zm9.658-52.873q0 1.977-1.437 3.414-1.437 1.438-3.459 1.438-1.977 0-3.414-1.437-1.437-1.437-1.437-3.414 0-2.021 1.438-3.459 1.438-1.437 3.414-1.437 2.021 0 3.459 1.438 1.438 1.438 1.438 3.459zm21.967 56.916q-7.457 0-11.949-4.762-4.492-4.807-4.492-12.937 0-7.232 3.1-13.387 3.1-6.154 8.58-9.658 5.525-3.504 12.398-3.504 7.457 0 11.949 4.807 4.492 4.762 4.492 12.893 0 7.232-3.1 13.387-3.1 6.154-8.625 9.658-5.48 3.504-12.354 3.504zm-8.535-16.172q0 6.064 2.336 9.299 2.381 3.189 6.604 3.189 4.088 0 7.771-3.279 3.729-3.279 5.885-8.939 2.156-5.705 2.156-12.219 0-6.199-2.381-9.389-2.336-3.234-6.738-3.234-4.088 0-7.771 3.279-3.639 3.279-5.75 8.984-2.111 5.66-2.111 12.309z" fill="#faf8f3"/></svg>