<svg xmlns="http://www.w3.org/2000/svg" version="1.1" width="512" height="512" id="svg2" sodipodi:docname="favicon.svg" inkscape:version="1.4.4 (1:1.4.4+202605061432+dcaf3e7d9e)" xml:space="preserve" xmlns:inkscape="http://www.inkscape.org/namespaces/inkscape" xmlns:sodipodi="http://sodipodi.sourceforge.net/DTD/sodipodi-0.dtd" xmlns:svg="http://www.w3.org/2000/svg"><defs id="defs2"></defs><sodipodi:namedview id="namedview2" pagecolor="#505050" bordercolor="#eeeeee" borderopacity="1" inkscape:showpageshadow="0" inkscape:pageopacity="0" inkscape:pagecheckerboard="0" inkscape:deskcolor="#d1d1d1" inkscape:zoom="1.1757813" inkscape:cx="263.22922" inkscape:cy="274.71095" inkscape:window-width="2470" inkscape:window-height="1412" inkscape:window-x="0" inkscape:window-y="0" inkscape:window-maximized="1" inkscape:current-layer="svg2"></sodipodi:namedview><rect width="512" height="512" rx="100" fill="#c8102e" id="rect1" x="0" y="0" style="fill:#c8102e;fill-opacity:1"></rect><g id="g1" transform="translate(0,6.9999985)"><path d="m 154.19667,38.020473 c 34.47417,0 59.92375,7.830705 76.34877,23.492114 16.52037,15.566059 24.78055,39.392293 24.78055,71.478723 0,32.94617 -7.87838,57.48834 -23.63514,73.6265 -15.75676,16.04361 -39.583,24.06541 -71.47873,24.06541 l -97.26164,-0.57329 v -10.45644 l 24.637519,-3.86767 V 52.201557 L 62.95048,48.476907 V 38.020473 Z m 53.57298,96.116237 c 0,-27.69391 -5.06115,-47.9866 -15.18346,-60.878066 C 182.46388,60.271037 165.99079,53.777233 143.16693,53.777233 H 132.56747 V 213.77987 c 9.16721,0.7636 17.47547,1.1454 24.92477,1.1454 12.4147,0 22.20288,-2.6738 29.36454,-8.0214 7.2578,-5.34761 12.55774,-13.70354 15.89979,-25.0678 3.34205,-11.45961 5.01308,-27.35979 5.01308,-47.70055 z m 58.64686,95.97322 v -10.45644 l 24.78054,-3.86767 V 52.201557 l -24.78054,-3.72465 V 38.020473 h 93.25094 c 25.49767,0 44.31043,3.437802 56.43828,10.313407 12.12786,6.780255 18.19179,17.809987 18.19179,33.089198 0,11.459612 -3.58123,21.343532 -10.74368,29.651792 -7.16245,8.30826 -16.75994,13.75161 -28.79244,16.33006 17.85767,1.81405 31.3701,6.6845 40.53731,14.61136 9.1672,7.8307 13.75081,18.52631 13.75081,32.08681 0,18.62127 -6.87561,32.75467 -20.62682,42.40023 -13.7512,9.64476 -33.47099,14.46714 -59.15936,14.46714 l -65.31905,-0.85935 z m 135.36511,-56.00802 c 0,-12.70076 -3.19903,-22.15481 -9.59708,-28.36217 -6.30271,-6.20735 -16.66379,-9.31103 -31.08325,-9.31103 h -24.78055 v 77.92446 c 13.75121,0.5729 24.58985,0.85935 32.5159,0.85935 11.17276,0 19.43294,-3.39013 24.78055,-10.17038 5.44296,-6.78026 8.16443,-17.09367 8.16443,-30.94023 z M 387.31448,85.434973 c 0,-11.172759 -2.43502,-19.242238 -7.30508,-24.208439 -4.7747,-4.965406 -12.70076,-7.448109 -23.77817,-7.448109 h -19.91049 v 66.893525 h 21.05709 c 10.21766,0 17.76191,-2.6738 22.63276,-8.0214 4.87006,-5.34761 7.30509,-14.41986 7.30509,-27.216769 z" fill="#faf8f3" id="path1" sodipodi:nodetypes="scsccccccccsccsccsccccccccccscssccsccccscsccscsccsccsccc" style="stroke-width:0.999999"></path><path d="m 154.19667,267.02953 c 34.47417,0 59.92375,7.8307 76.34877,23.49211 16.52037,15.56606 24.78055,39.3923 24.78055,71.47873 0,32.94617 -7.87838,57.48833 -23.63514,73.6265 -15.75676,16.04361 -39.583,24.06541 -71.47873,24.06541 l -97.26164,-0.5733 v -10.45643 l 24.637519,-3.86768 V 281.21061 L 62.95048,277.48596 v -10.45643 z m 53.57298,96.11624 c 0,-27.69391 -5.06115,-47.98661 -15.18346,-60.87807 -10.12231,-12.98761 -26.5954,-19.48141 -49.41926,-19.48141 h -10.59946 v 160.00263 c 9.16721,0.76361 17.47547,1.14541 24.92477,1.14541 12.4147,0 22.20288,-2.6738 29.36454,-8.02141 7.2578,-5.34761 12.55774,-13.70353 15.89979,-25.06779 3.34205,-11.45961 5.01308,-27.35979 5.01308,-47.70055 z m 58.64686,95.97321 v -10.45643 l 24.78054,-3.86768 V 281.21061 l -24.78054,-3.72465 v -10.45643 h 93.25094 c 25.49767,0 44.31043,3.4378 56.43828,10.31341 12.12786,6.78026 18.19179,17.80999 18.19179,33.08919 0,11.45962 -3.58123,21.34354 -10.74368,29.6518 -7.16245,8.30826 -16.75994,13.75161 -28.79244,16.33006 17.85767,1.81405 31.3701,6.6845 40.53731,14.61135 9.1672,7.83071 13.75081,18.52632 13.75081,32.08682 0,18.62126 -6.87561,32.75467 -20.62682,42.40023 -13.7512,9.64476 -33.47099,14.46714 -59.15936,14.46714 l -65.31905,-0.85935 z m 135.36511,-56.00801 c 0,-12.70076 -3.19903,-22.15482 -9.59708,-28.36217 -6.30271,-6.20735 -16.66379,-9.31103 -31.08325,-9.31103 h -24.78055 v 77.92445 c 13.75121,0.57291 24.58985,0.85935 32.5159,0.85935 11.17276,0 19.43294,-3.39012 24.78055,-10.17038 5.44296,-6.78026 8.16443,-17.09366 8.16443,-30.94022 z m -14.46714,-88.66694 c 0,-11.17276 -2.43502,-19.24223 -7.30508,-24.20844 -4.7747,-4.96541 -12.70076,-7.44811 -23.77817,-7.44811 h -19.91049 v 66.89472 h 21.05709 c 10.21766,0 17.76191,-2.6738 22.63276,-8.02141 4.87006,-5.3476 7.30509,-14.41985 7.30509,-27.21676 z" style="fill:#faf8f3;stroke-width:0.999999" id="path1-3"></path></g></svg>