<?xml version="1.0" encoding="UTF-8" standalone="no"?>
<svg
   width="512"
   height="512"
   version="1.1"
   id="svg2"
   sodipodi:docname="favicon-admin.svg"
   inkscape:version="1.4.4 (1:1.4.4+202605061432+dcaf3e7d9e)"
   xmlns:inkscape="http://www.inkscape.org/namespaces/inkscape"
   xmlns:sodipodi="http://sodipodi.sourceforge.net/DTD/sodipodi-0.dtd"
   xmlns="http://www.w3.org/2000/svg"
   xmlns:svg="http://www.w3.org/2000/svg">
  <defs
     id="defs2" />
  <sodipodi:namedview
     id="namedview2"
     pagecolor="#505050"
     bordercolor="#eeeeee"
     borderopacity="1"
     inkscape:showpageshadow="0"
     inkscape:pageopacity="0"
     inkscape:pagecheckerboard="0"
     inkscape:deskcolor="#d1d1d1"
     inkscape:zoom="0.41570147"
     inkscape:cx="-328.36064"
     inkscape:cy="64.950457"
     inkscape:window-width="2470"
     inkscape:window-height="1412"
     inkscape:window-x="0"
     inkscape:window-y="0"
     inkscape:window-maximized="1"
     inkscape:current-layer="svg2" />
  <rect
     width="512"
     height="512"
     rx="100"
     fill="#c8102e"
     id="rect1"
     x="0"
     y="0"
     style="fill:#1c1a17;fill-opacity:1" />
  <path
     d="m 423.50541,436.57319 q 0,1.21263 -0.86608,2.1035 -0.84129,0.89087 -2.12829,0.89087 -1.28699,0 -2.15307,-0.89087 -0.84129,-0.89087 -0.84129,-2.1035 0,-1.2622 0.86608,-2.12828 0.86608,-0.86608 2.12828,-0.86608 1.2622,0 2.12829,0.86608 0.86608,0.86608 0.86608,2.12828 z m 11.80555,0.54433 3.88578,0.61871 -0.19779,1.11345 h -8.09276 l 3.78661,-21.53185 -3.1927,-0.61871 0.19779,-1.11345 h 7.40024 z m 5.32098,-29.12988 q 0,1.08922 -0.7917,1.88092 -0.7917,0.79225 -1.9057,0.79225 -1.08921,0 -1.88091,-0.7917 -0.79171,-0.7917 -0.79171,-1.88091 0,-1.11346 0.79226,-1.9057 0.79225,-0.79171 1.8809,-0.79171 1.11346,0 1.90571,0.79225 0.79225,0.79226 0.79225,1.90571 z m 12.10251,31.35734 q -4.10836,0 -6.58318,-2.62358 -2.47483,-2.64837 -2.47483,-7.12752 0,-3.9844 1.70792,-7.37544 1.70791,-3.39048 4.72707,-5.32099 3.04394,-1.93049 6.83055,-1.93049 4.10837,0 6.5832,2.64837 2.47482,2.62358 2.47482,7.10328 0,3.9844 -1.70791,7.37544 -1.70792,3.39049 -4.75187,5.32098 -3.01915,1.9305 -6.80632,1.9305 z m -4.70227,-8.90981 q 0,3.3409 1.28699,5.1232 1.3118,1.75695 3.63841,1.75695 2.25225,0 4.28136,-1.80654 2.05446,-1.80653 3.24229,-4.92486 1.18782,-3.14311 1.18782,-6.73194 0,-3.41528 -1.31178,-5.17278 -1.287,-1.78175 -3.71224,-1.78175 -2.25224,0 -4.28136,1.80654 -2.00487,1.80653 -3.16791,4.94965 -1.16303,3.11833 -1.16303,6.78153 z"
     fill="#faf8f3"
     id="path2"
     style="stroke-width:1" />
  <g
     id="g1"
     transform="matrix(1.0726174,0,0,1.0726174,-18.590054,-0.56400034)"
     style="stroke-width:0.932298">
    <path
       d="m 170.5865,68.0545 c 28.924,0 50.27633,6.57 64.057,19.71 13.86067,13.06 20.791,33.05033 20.791,59.971 0,27.642 -6.61,48.233 -19.83,61.773 -13.22,13.46067 -33.21033,20.191 -59.971,20.191 l -81.603,-0.481 v -8.773 l 20.671,-3.245 V 79.9525 l -20.671,-3.125 v -8.773 z m 44.948,80.642 c 0,-23.23533 -4.24633,-40.261 -12.739,-51.077 -8.49267,-10.896667 -22.31367,-16.345 -41.463,-16.345 h -8.893 v 134.243 c 7.69133,0.64067 14.662,0.961 20.912,0.961 10.416,0 18.62833,-2.24333 24.637,-6.73 6.08933,-4.48667 10.536,-11.49733 13.34,-21.032 2.804,-9.61467 4.206,-22.955 4.206,-40.021 z m 49.205,80.522 v -8.773 l 20.791,-3.245 V 79.9525 l -20.791,-3.125 v -8.773 h 78.238 c 21.39267,0 37.17667,2.884333 47.352,8.653 10.17533,5.688667 15.263,14.942667 15.263,27.762 0,9.61467 -3.00467,17.90733 -9.014,24.878 -6.00933,6.97067 -14.06167,11.53767 -24.157,13.701 14.98267,1.522 26.31967,5.60833 34.011,12.259 7.69133,6.57 11.537,15.54367 11.537,26.921 0,15.62333 -5.76867,27.48133 -17.306,35.574 -11.53733,8.092 -28.08233,12.138 -49.635,12.138 l -54.803,-0.721 z m 113.572,-46.991 c 0,-10.656 -2.684,-18.588 -8.052,-23.796 -5.288,-5.208 -13.981,-7.812 -26.079,-7.812 h -20.791 v 65.379 c 11.53733,0.48067 20.631,0.721 27.281,0.721 9.374,0 16.30433,-2.84433 20.791,-8.533 4.56667,-5.68867 6.85,-14.34167 6.85,-25.959 z m -12.138,-74.392 c 0,-9.374 -2.043,-16.144333 -6.129,-20.311 -4.006,-4.166 -10.656,-6.249 -19.95,-6.249 h -16.705 v 56.124 h 17.667 c 8.57267,0 14.90233,-2.24333 18.989,-6.73 4.086,-4.48667 6.129,-12.09833 6.129,-22.835 z"
       fill="#faf8f3"
       id="path1"
       sodipodi:nodetypes="scsccccccccsccsccsccccccccccscssccsccccscsccscsccsccsccc"
       style="stroke-width:0.932298" />
    <path
       d="m 170.5865,248.44816 c 28.924,0 50.27633,6.57 64.057,19.71 13.86067,13.06 20.791,33.05033 20.791,59.971 0,27.642 -6.61,48.233 -19.83,61.773 -13.22,13.46067 -33.21033,20.191 -59.971,20.191 l -81.603,-0.481 v -8.773 l 20.671,-3.245 v -137.248 l -20.671,-3.125 v -8.773 z m 44.948,80.642 c 0,-23.23533 -4.24633,-40.261 -12.739,-51.077 -8.49267,-10.89667 -22.31367,-16.345 -41.463,-16.345 h -8.893 v 134.243 c 7.69133,0.64067 14.662,0.961 20.912,0.961 10.416,0 18.62833,-2.24333 24.637,-6.73 6.08933,-4.48667 10.536,-11.49733 13.34,-21.032 2.804,-9.61467 4.206,-22.955 4.206,-40.021 z m 49.205,80.522 v -8.773 l 20.791,-3.245 v -137.248 l -20.791,-3.125 v -8.773 h 78.238 c 21.39267,0 37.17667,2.88433 47.352,8.653 10.17533,5.68867 15.263,14.94267 15.263,27.762 0,9.61467 -3.00467,17.90733 -9.014,24.878 -6.00933,6.97067 -14.06167,11.53767 -24.157,13.701 14.98267,1.522 26.31967,5.60833 34.011,12.259 7.69133,6.57 11.537,15.54367 11.537,26.921 0,15.62333 -5.76867,27.48133 -17.306,35.574 -11.53733,8.092 -28.08233,12.138 -49.635,12.138 l -54.803,-0.721 z m 113.572,-46.991 c 0,-10.656 -2.684,-18.588 -8.052,-23.796 -5.288,-5.208 -13.981,-7.812 -26.079,-7.812 h -20.791 v 65.379 c 11.53733,0.48067 20.631,0.721 27.281,0.721 9.374,0 16.30433,-2.84433 20.791,-8.533 4.56667,-5.68867 6.85,-14.34167 6.85,-25.959 z m -12.138,-74.392 c 0,-9.374 -2.043,-16.14433 -6.129,-20.311 -4.006,-4.166 -10.656,-6.249 -19.95,-6.249 h -16.705 v 56.125 h 17.667 c 8.57267,0 14.90233,-2.24333 18.989,-6.73 4.086,-4.48667 6.129,-12.09833 6.129,-22.835 z"
       style="fill:#faf8f3;stroke-width:0.932298"
       id="path1-3" />
  </g>
</svg>
