<?xml version="1.0" encoding="UTF-8" standalone="no"?>
<svg
   width="1200"
   height="630"
   version="1.1"
   id="svg2"
   sodipodi:docname="site-image.svg"
   inkscape:version="1.4.4 (1:1.4.4+202605061432+dcaf3e7d9e)"
   inkscape:export-filename="site-image.webp"
   inkscape:export-xdpi="96"
   inkscape:export-ydpi="96"
   xmlns:inkscape="http://www.inkscape.org/namespaces/inkscape"
   xmlns:sodipodi="http://sodipodi.sourceforge.net/DTD/sodipodi-0.dtd"
   xmlns="http://www.w3.org/2000/svg"
   xmlns:svg="http://www.w3.org/2000/svg">
  <defs
     id="defs2" />
  <sodipodi:namedview
     id="namedview2"
     pagecolor="#505050"
     bordercolor="#eeeeee"
     borderopacity="1"
     inkscape:showpageshadow="0"
     inkscape:pageopacity="0"
     inkscape:pagecheckerboard="0"
     inkscape:deskcolor="#d1d1d1"
     inkscape:zoom="0.41628278"
     inkscape:cx="-343.51649"
     inkscape:cy="641.39093"
     inkscape:window-width="2470"
     inkscape:window-height="1412"
     inkscape:window-x="0"
     inkscape:window-y="0"
     inkscape:window-maximized="1"
     inkscape:current-layer="svg2"
     showgrid="false" />
  <rect
     width="1200"
     height="630"
     fill="#c8102e"
     id="rect1"
     x="0"
     y="0" />
  <path
     d="m 804.08606,552.59631 q 0,1.59556 -1.13957,2.76776 -1.10696,1.17219 -2.80038,1.17219 -1.69342,0 -2.83299,-1.17219 -1.10696,-1.1722 -1.10696,-2.76776 0,-1.66079 1.13958,-2.80037 1.13957,-1.13957 2.80037,-1.13957 1.66079,0 2.80038,1.13957 1.13957,1.13958 1.13957,2.80037 z m 15.53363,0.71623 5.11287,0.81408 -0.26025,1.46508 h -10.64838 l 4.98239,-28.3314 -4.20092,-0.81408 0.26025,-1.46507 h 9.73715 z m 7.00128,-38.3288 q 0,1.43318 -1.04171,2.47489 -1.04171,1.04244 -2.5075,1.04244 -1.43317,0 -2.47488,-1.04172 -1.04172,-1.04171 -1.04172,-2.47487 0,-1.46508 1.04245,-2.50751 1.04243,-1.04172 2.47487,-1.04172 1.46507,0 2.50751,1.04244 1.04244,1.04245 1.04244,2.50751 z m 15.92437,41.25966 q -5.40575,0 -8.66209,-3.45208 -3.25636,-3.4847 -3.25636,-9.37831 0,-5.24263 2.24726,-9.70453 2.24726,-4.46116 6.21983,-7.0013 4.0052,-2.54012 8.98758,-2.54012 5.40574,0 8.6621,3.4847 3.25634,3.45207 3.25634,9.34641 0,5.24264 -2.24725,9.70454 -2.24726,4.46116 -6.25246,7.00128 -3.97256,2.54014 -8.95568,2.54014 z m -6.18721,-11.72343 q 0,4.39591 1.69341,6.74104 1.72605,2.31178 4.78739,2.31178 2.96348,0 5.63336,-2.37702 2.70324,-2.37702 4.26617,-6.48008 1.56293,-4.13567 1.56293,-8.85782 0,-4.49378 -1.72604,-6.80628 -1.69342,-2.34441 -4.88452,-2.34441 -2.96348,0 -5.63337,2.37702 -2.63799,2.37702 -4.1683,6.5127 -1.5303,4.10306 -1.5303,8.92307 z"
     fill="#faf8f3"
     id="path2"
     style="stroke-width:1.31579" />
  <g
     id="g1"
     transform="matrix(1.4113387,0,0,1.4113387,217.29111,-22.584214)"
     style="stroke-width:0.932298">
    <path
       d="m 170.5865,68.0545 c 28.924,0 50.27633,6.57 64.057,19.71 13.86067,13.06 20.791,33.05033 20.791,59.971 0,27.642 -6.61,48.233 -19.83,61.773 -13.22,13.46067 -33.21033,20.191 -59.971,20.191 l -81.603,-0.481 v -8.773 l 20.671,-3.245 V 79.9525 l -20.671,-3.125 v -8.773 z m 44.948,80.642 c 0,-23.23533 -4.24633,-40.261 -12.739,-51.077 -8.49267,-10.896667 -22.31367,-16.345 -41.463,-16.345 h -8.893 v 134.243 c 7.69133,0.64067 14.662,0.961 20.912,0.961 10.416,0 18.62833,-2.24333 24.637,-6.73 6.08933,-4.48667 10.536,-11.49733 13.34,-21.032 2.804,-9.61467 4.206,-22.955 4.206,-40.021 z m 49.205,80.522 v -8.773 l 20.791,-3.245 V 79.9525 l -20.791,-3.125 v -8.773 h 78.238 c 21.39267,0 37.17667,2.884333 47.352,8.653 10.17533,5.688667 15.263,14.942667 15.263,27.762 0,9.61467 -3.00467,17.90733 -9.014,24.878 -6.00933,6.97067 -14.06167,11.53767 -24.157,13.701 14.98267,1.522 26.31967,5.60833 34.011,12.259 7.69133,6.57 11.537,15.54367 11.537,26.921 0,15.62333 -5.76867,27.48133 -17.306,35.574 -11.53733,8.092 -28.08233,12.138 -49.635,12.138 l -54.803,-0.721 z m 113.572,-46.991 c 0,-10.656 -2.684,-18.588 -8.052,-23.796 -5.288,-5.208 -13.981,-7.812 -26.079,-7.812 h -20.791 v 65.379 c 11.53733,0.48067 20.631,0.721 27.281,0.721 9.374,0 16.30433,-2.84433 20.791,-8.533 4.56667,-5.68867 6.85,-14.34167 6.85,-25.959 z m -12.138,-74.392 c 0,-9.374 -2.043,-16.144333 -6.129,-20.311 -4.006,-4.166 -10.656,-6.249 -19.95,-6.249 h -16.705 v 56.124 h 17.667 c 8.57267,0 14.90233,-2.24333 18.989,-6.73 4.086,-4.48667 6.129,-12.09833 6.129,-22.835 z"
       fill="#faf8f3"
       id="path1"
       sodipodi:nodetypes="scsccccccccsccsccsccccccccccscssccsccccscsccscsccsccsccc"
       style="stroke-width:0.932298" />
    <path
       d="m 170.5865,248.44816 c 28.924,0 50.27633,6.57 64.057,19.71 13.86067,13.06 20.791,33.05033 20.791,59.971 0,27.642 -6.61,48.233 -19.83,61.773 -13.22,13.46067 -33.21033,20.191 -59.971,20.191 l -81.603,-0.481 v -8.773 l 20.671,-3.245 v -137.248 l -20.671,-3.125 v -8.773 z m 44.948,80.642 c 0,-23.23533 -4.24633,-40.261 -12.739,-51.077 -8.49267,-10.89667 -22.31367,-16.345 -41.463,-16.345 h -8.893 v 134.243 c 7.69133,0.64067 14.662,0.961 20.912,0.961 10.416,0 18.62833,-2.24333 24.637,-6.73 6.08933,-4.48667 10.536,-11.49733 13.34,-21.032 2.804,-9.61467 4.206,-22.955 4.206,-40.021 z m 49.205,80.522 v -8.773 l 20.791,-3.245 v -137.248 l -20.791,-3.125 v -8.773 h 78.238 c 21.39267,0 37.17667,2.88433 47.352,8.653 10.17533,5.68867 15.263,14.94267 15.263,27.762 0,9.61467 -3.00467,17.90733 -9.014,24.878 -6.00933,6.97067 -14.06167,11.53767 -24.157,13.701 14.98267,1.522 26.31967,5.60833 34.011,12.259 7.69133,6.57 11.537,15.54367 11.537,26.921 0,15.62333 -5.76867,27.48133 -17.306,35.574 -11.53733,8.092 -28.08233,12.138 -49.635,12.138 l -54.803,-0.721 z m 113.572,-46.991 c 0,-10.656 -2.684,-18.588 -8.052,-23.796 -5.288,-5.208 -13.981,-7.812 -26.079,-7.812 h -20.791 v 65.379 c 11.53733,0.48067 20.631,0.721 27.281,0.721 9.374,0 16.30433,-2.84433 20.791,-8.533 4.56667,-5.68867 6.85,-14.34167 6.85,-25.959 z m -12.138,-74.392 c 0,-9.374 -2.043,-16.14433 -6.129,-20.311 -4.006,-4.166 -10.656,-6.249 -19.95,-6.249 h -16.705 v 56.125 h 17.667 c 8.57267,0 14.90233,-2.24333 18.989,-6.73 4.086,-4.48667 6.129,-12.09833 6.129,-22.835 z"
       style="fill:#faf8f3;stroke-width:0.932298"
       id="path1-3" />
  </g>
</svg>
